<svg width="143" height="60" viewBox="0 0 143 60" fill="none" xmlns="http://www.w3.org/2000/svg">
<path d="M10.7129 12.7612H8.23207L5.39755 17.5229L2.47909 12.7612H0V21.7095H2.747V17.7676L4.69026 20.904H6.0209L7.96773 17.6283L7.98916 21.7095H10.7379L10.7129 12.7612Z" fill="white"/>
<path d="M16.6035 19.4716C16.884 19.4716 17.1447 19.4215 17.3841 19.318C17.6305 19.2161 17.8449 19.0697 18.0235 18.8839C18.211 18.6875 18.3557 18.4535 18.4575 18.1802C18.5593 17.8998 18.6111 17.5837 18.6111 17.2336C18.6111 16.8835 18.5593 16.5727 18.4575 16.3013C18.3557 16.0191 18.211 15.7851 18.0235 15.5975C17.8449 15.4011 17.6305 15.2528 17.3841 15.151C17.1447 15.0492 16.8857 14.9974 16.6035 14.9974C16.3213 14.9974 16.0588 15.0474 15.8105 15.151C15.5712 15.2528 15.3586 15.4029 15.1711 15.5975C14.9925 15.7851 14.8514 16.0191 14.7496 16.3013C14.6478 16.5745 14.596 16.8853 14.596 17.2336C14.596 17.5837 14.6478 17.898 14.7496 18.1802C14.8514 18.4535 14.9925 18.6875 15.1711 18.8839C15.3586 19.0715 15.5712 19.2161 15.8105 19.318C16.0588 19.4215 16.3231 19.4716 16.6035 19.4716ZM16.6035 21.9131C15.8784 21.9131 15.205 21.7988 14.5835 21.5684C13.9691 21.338 13.4368 21.0147 12.9849 20.5968C12.5331 20.1699 12.1794 19.6716 11.924 19.1018C11.6775 18.5303 11.5525 17.9087 11.5525 17.2354C11.5525 16.5531 11.6757 15.9315 11.924 15.3689C12.1794 14.7974 12.5331 14.3026 12.9849 13.8865C13.4368 13.4596 13.9691 13.1327 14.5835 12.9023C15.205 12.6719 15.8784 12.5576 16.6035 12.5576C17.3358 12.5576 18.0092 12.6719 18.6236 12.9023C19.238 13.1327 19.7703 13.4596 20.2222 13.8865C20.674 14.3044 21.0223 14.7992 21.2706 15.3689C21.526 15.9315 21.6546 16.5531 21.6546 17.2354C21.6546 17.9087 21.5278 18.5303 21.2706 19.1018C21.0223 19.6734 20.674 20.1717 20.2222 20.5968C19.7703 21.0147 19.238 21.338 18.6236 21.5684C18.011 21.7988 17.3376 21.9131 16.6035 21.9131Z" fill="white"/>
<path d="M26.9824 21.9131C26.2661 21.9131 25.6017 21.8024 24.9891 21.5809C24.3836 21.3505 23.8549 21.0272 23.403 20.6093C22.9601 20.1914 22.6136 19.6966 22.3671 19.1268C22.1188 18.5553 21.9956 17.9248 21.9956 17.2354C21.9956 16.5442 22.1188 15.9137 22.3671 15.3439C22.6136 14.7724 22.9601 14.2776 23.403 13.8615C23.8549 13.4435 24.3836 13.1238 24.9891 12.9023C25.6035 12.6719 26.2679 12.5576 26.9824 12.5576C27.8611 12.5576 28.6363 12.7112 29.3096 13.0184C29.9919 13.3256 30.5527 13.7686 30.9975 14.3473L29.0917 16.0476C28.8274 15.7154 28.5327 15.46 28.2094 15.2814C27.8933 15.0939 27.536 15.001 27.136 15.001C26.8198 15.001 26.5358 15.051 26.2786 15.1546C26.0214 15.2582 25.8018 15.4064 25.6142 15.6011C25.4356 15.7976 25.2945 16.0351 25.1927 16.3173C25.0909 16.5906 25.0391 16.8978 25.0391 17.2372C25.0391 17.5783 25.0909 17.8891 25.1927 18.1695C25.2945 18.4428 25.4356 18.6767 25.6142 18.8732C25.8018 19.0697 26.0232 19.2179 26.2786 19.3215C26.5341 19.4233 26.8198 19.4751 27.136 19.4751C27.536 19.4751 27.8951 19.3858 28.2094 19.2072C28.5327 19.0197 28.8274 18.7607 29.0917 18.4267L30.9975 20.1271C30.5545 20.6968 29.9919 21.1416 29.3096 21.4559C28.6363 21.7595 27.8611 21.9131 26.9824 21.9131Z" fill="white"/>
<path d="M37.6239 17.5551L34.8501 17.2747L37.4202 12.7612H40.5655L37.6239 17.5551ZM33.723 18.4749V16.0976H37.1113V18.4749H33.723ZM31.5762 21.7095V12.7612H34.5929V21.7095H31.5762ZM37.1505 21.7095L34.9269 17.5158L37.3309 16.1101L40.553 21.7095H37.1505Z" fill="white"/>
<path d="M45.3987 19.4716C45.6791 19.4716 45.9399 19.4215 46.1792 19.318C46.4257 19.2161 46.64 19.0697 46.8186 18.8839C47.0062 18.6875 47.1509 18.4535 47.2527 18.1802C47.3545 17.8998 47.4063 17.5837 47.4063 17.2336C47.4063 16.8835 47.3563 16.5727 47.2527 16.3013C47.1509 16.0191 47.0044 15.7851 46.8186 15.5975C46.64 15.4011 46.4257 15.2528 46.1792 15.151C45.9399 15.0492 45.6809 14.9974 45.3987 14.9974C45.1183 14.9974 44.854 15.0474 44.6057 15.151C44.3664 15.2528 44.1538 15.4029 43.9663 15.5975C43.7877 15.7851 43.6466 16.0191 43.5447 16.3013C43.4429 16.5745 43.3911 16.8853 43.3911 17.2336C43.3911 17.5837 43.4429 17.898 43.5447 18.1802C43.6466 18.4535 43.7877 18.6875 43.9663 18.8839C44.1538 19.0715 44.3664 19.2161 44.6057 19.318C44.854 19.4215 45.1183 19.4716 45.3987 19.4716ZM45.3987 21.9131C44.6736 21.9131 44.0002 21.7988 43.3786 21.5684C42.7642 21.338 42.232 21.0147 41.7801 20.5968C41.3282 20.1699 40.9746 19.6716 40.7192 19.1018C40.4709 18.5303 40.3477 17.9087 40.3477 17.2354C40.3477 16.5531 40.4709 15.9315 40.7192 15.3689C40.9746 14.7974 41.3282 14.3026 41.7801 13.8865C42.232 13.4596 42.7642 13.1327 43.3786 12.9023C44.0002 12.6719 44.6736 12.5576 45.3987 12.5576C46.131 12.5576 46.8044 12.6719 47.4188 12.9023C48.0332 13.1327 48.5654 13.4596 49.0173 13.8865C49.4692 14.3044 49.8175 14.7992 50.0658 15.3689C50.3212 15.9315 50.4498 16.5531 50.4498 17.2354C50.4498 17.9087 50.3229 18.5303 50.0658 19.1018C49.8175 19.6734 49.4692 20.1717 49.0173 20.5968C48.5654 21.0147 48.0332 21.338 47.4188 21.5684C46.8044 21.7988 46.131 21.9131 45.3987 21.9131Z" fill="white"/>
<path d="M54.2435 16.1994H55.5223C55.7777 16.1994 55.9653 16.1441 56.0849 16.0333C56.2046 15.9226 56.2635 15.7601 56.2635 15.5475C56.2635 15.3261 56.2046 15.1599 56.0849 15.0492C55.9653 14.9295 55.7777 14.8706 55.5223 14.8706H54.2435V16.1994ZM54.2435 19.6002H55.9188C56.1653 19.6002 56.3493 19.5412 56.4689 19.4215C56.5975 19.2947 56.66 19.1143 56.66 18.8839C56.66 18.6535 56.5957 18.4839 56.4689 18.3731C56.3493 18.2534 56.1671 18.1945 55.9188 18.1945H54.2435V19.6002ZM51.2786 21.7095V12.7612H55.817C56.9244 12.7612 57.7817 12.9666 58.3872 13.3756C58.9998 13.7847 59.307 14.3598 59.307 15.101C59.307 15.8244 59.0266 16.4013 58.464 16.8264C57.9014 17.2443 57.1423 17.4533 56.1885 17.4533L56.4439 16.7621C57.4584 16.7621 58.255 16.9621 58.8355 17.3622C59.4142 17.7623 59.7035 18.3463 59.7035 19.1126C59.7035 19.9056 59.3892 20.5361 58.7587 21.004C58.1282 21.4738 57.228 21.7077 56.0617 21.7077H51.2786V21.7095Z" fill="white"/>
<path d="M65.0224 21.9131C64.3062 21.9131 63.6418 21.8024 63.0291 21.5809C62.4236 21.3505 61.895 21.0272 61.4431 20.6093C61.0001 20.1914 60.6536 19.6966 60.4071 19.1268C60.1607 18.5553 60.0356 17.9248 60.0356 17.2354C60.0356 16.5442 60.1589 15.9137 60.4071 15.3439C60.6536 14.7724 61.0001 14.2776 61.4431 13.8615C61.895 13.4435 62.4236 13.1238 63.0291 12.9023C63.6435 12.6719 64.308 12.5576 65.0224 12.5576C65.9011 12.5576 66.6763 12.7112 67.3497 13.0184C68.032 13.3256 68.5928 13.7686 69.0375 14.3473L67.1318 16.0476C66.8674 15.7154 66.5745 15.46 66.2494 15.2814C65.9333 15.0939 65.5761 15.001 65.176 15.001C64.8616 15.001 64.5759 15.051 64.3187 15.1546C64.0633 15.2564 63.8418 15.4064 63.6543 15.6011C63.4756 15.7976 63.3346 16.0351 63.2327 16.3173C63.1309 16.5906 63.0791 16.8978 63.0791 17.2372C63.0791 17.5783 63.1309 17.8891 63.2327 18.1695C63.3346 18.4428 63.4756 18.6767 63.6543 18.8732C63.8418 19.0697 64.0633 19.2179 64.3187 19.3215C64.5741 19.4233 64.8599 19.4751 65.176 19.4751C65.5761 19.4751 65.9351 19.3858 66.2494 19.2072C66.5727 19.0197 66.8674 18.7607 67.1318 18.4267L69.0375 20.1271C68.5946 20.6968 68.032 21.1416 67.3497 21.4559C66.6763 21.7595 65.9011 21.9131 65.0224 21.9131Z" fill="white"/>
<path d="M75.6621 17.5551L72.8883 17.2747L75.4585 12.7612H78.6038L75.6621 17.5551ZM71.7631 18.4749V16.0976H75.1513V18.4749H71.7631ZM69.6162 21.7095V12.7612H72.6329V21.7095H69.6162ZM75.1888 21.7095L72.9651 17.5158L75.3692 16.1101L78.5913 21.7095H75.1888Z" fill="white"/>
<path d="M78.9504 21.7095V12.7612H81.9153V17.414L84.9963 12.7612H87.8344V21.7095H84.8695V17.0693L81.801 21.7095H78.9504Z" fill="white"/>
<path d="M93.6036 12.249C92.5891 12.249 91.8693 12.0614 91.4424 11.6863C91.0244 11.3023 90.8155 10.7576 90.8155 10.0503H92.823C92.823 10.3307 92.8784 10.5397 92.9891 10.6772C93.1088 10.804 93.3124 10.8683 93.6036 10.8683C93.9018 10.8683 94.1108 10.804 94.2305 10.6772C94.3501 10.5415 94.4091 10.3325 94.4091 10.0503H96.4166C96.4166 10.7576 96.1987 11.3023 95.7647 11.6863C95.3378 12.0614 94.6181 12.249 93.6036 12.249ZM89.1687 21.7099V12.7616H92.1354V17.4143L95.2164 12.7616H98.0545V21.7099H95.0878V17.0696L92.0193 21.7099H89.1687Z" fill="white"/>
<path d="M4.25263 33.1641L0.0856934 25.4946H3.2685L5.88869 31.0815L4.25263 33.1641ZM1.56815 32.1031C2.09683 32.2389 2.50941 32.2871 2.80769 32.2442C3.10597 32.1942 3.37031 32.0103 3.60071 31.6941L4.03473 31.0797L4.29014 30.7993L6.88533 25.4946H9.80022L6.2084 32.2317C5.81546 32.964 5.34393 33.5356 4.79025 33.9446C4.24549 34.3447 3.64001 34.5751 2.97558 34.6358C2.31116 34.6948 1.60744 34.5769 0.866215 34.2786L1.56815 32.1031Z" fill="white"/>
<path d="M13.1886 31.2851L11.8472 29.917H14.2888C14.7067 29.917 15.0122 29.8223 15.2086 29.6366C15.414 29.449 15.5158 29.1936 15.5158 28.8685C15.5158 28.5453 15.414 28.2899 15.2086 28.1005C15.0122 27.913 14.7067 27.8201 14.2888 27.8201H11.8472L13.1886 26.452V31.2851ZM10.1719 34.4429V25.4946H14.4799C15.3158 25.4946 16.0356 25.6304 16.6393 25.9036C17.2537 26.1769 17.727 26.5681 18.0574 27.0807C18.3897 27.5826 18.5558 28.1791 18.5558 28.8703C18.5558 29.5615 18.3897 30.1581 18.0574 30.66C17.7252 31.1637 17.2519 31.5548 16.6393 31.837C16.0338 32.1103 15.314 32.246 14.4799 32.246H11.8472L13.1886 30.9547V34.4447H10.1719V34.4429Z" fill="white"/>
<path d="M22.1832 32.3336H23.73C24.0283 32.3336 24.2587 32.2693 24.4212 32.1424C24.5927 32.0156 24.6766 31.8317 24.6766 31.5923C24.6766 31.1315 24.3605 30.9011 23.73 30.9011H22.1832V32.3336ZM19.2166 34.4429V25.4946H26.9753V27.7701H22.1832V28.806H24.3176C25.4089 28.806 26.243 29.04 26.8235 29.5098C27.4111 29.9706 27.7058 30.6386 27.7058 31.5173C27.7058 32.43 27.3736 33.1444 26.7092 33.6642C26.0448 34.1839 25.1196 34.4447 23.9354 34.4447H19.2166V34.4429Z" fill="white"/>
<path d="M29.9347 32.8837L30.7009 30.71H34.8179L35.5859 32.8837H29.9347ZM27.6074 34.4429L31.5189 25.4946H34.4839L38.3954 34.4429H35.2751L32.387 26.9271H33.5622L30.6723 34.4429H27.6074Z" fill="white"/>
<path d="M41.7783 31.1439V28.6648H44.9736V31.1439H41.7783ZM38.967 34.4428V25.4945H41.9837V34.4428H38.967ZM47.7867 25.4927V34.441H44.77V25.4927H47.7867Z" fill="white"/>
<path d="M49.1228 34.4429V25.4946H52.0877V30.1474L55.1687 25.4946H58.0086V34.4429H55.0419V29.8027L51.9734 34.4429H49.1228Z" fill="white"/>
<path d="M63.8418 34.6465C63.1256 34.6465 62.4612 34.5358 61.8468 34.3143C61.2413 34.0839 60.7126 33.7606 60.2607 33.3427C59.8178 32.9247 59.473 32.43 59.2248 31.8602C58.9765 31.2887 58.8533 30.6582 58.8533 29.9688C58.8533 29.2776 58.9765 28.6471 59.2248 28.0773C59.4713 27.5076 59.8178 27.011 60.2607 26.5949C60.7126 26.1769 61.2413 25.8572 61.8468 25.6357C62.4612 25.4053 63.1256 25.291 63.8418 25.291C64.7188 25.291 65.4957 25.4446 66.1691 25.7518C66.8514 26.059 67.414 26.502 67.8569 27.0807L65.9512 28.781C65.6868 28.4488 65.3921 28.1934 65.0689 28.013C64.7527 27.8255 64.3955 27.7326 63.9954 27.7326C63.6793 27.7326 63.3935 27.7844 63.1381 27.8862C62.8827 27.988 62.6612 28.138 62.4737 28.3327C62.2951 28.5292 62.154 28.7667 62.0521 29.0489C61.9503 29.3222 61.8985 29.6294 61.8985 29.9688C61.8985 30.3099 61.9486 30.6207 62.0521 30.9011C62.154 31.1744 62.2951 31.4084 62.4737 31.6048C62.6612 31.8013 62.8827 31.9495 63.1381 32.0514C63.3935 32.1532 63.6793 32.205 63.9954 32.205C64.3955 32.205 64.7545 32.1157 65.0689 31.937C65.3921 31.7495 65.6868 31.4905 65.9512 31.1565L67.8569 32.8569C67.414 33.4284 66.8514 33.8714 66.1691 34.1857C65.4939 34.4929 64.7188 34.6465 63.8418 34.6465Z" fill="white"/>
<path d="M70.4808 34.4429V27.1807L71.1327 27.8326H67.8606V25.4946H76.0677V27.8326H72.7956L73.4475 27.1807V34.4429H70.4808Z" fill="white"/>
<path d="M76.8071 34.4429V25.4946H79.772V30.1474L82.853 25.4946H85.6911V34.4429H82.7262V29.8027L79.6577 34.4429H76.8071Z" fill="white"/>
<path d="M92.003 34.4429V25.4946H94.9679V34.4429H92.003ZM92.3995 31.4387C92.0155 31.5763 91.6583 31.6781 91.3261 31.7459C91.0028 31.8138 90.6866 31.8477 90.3794 31.8477C89.0667 31.8477 88.0665 31.537 87.3752 30.9154C86.693 30.2938 86.3518 29.3847 86.3518 28.1916V25.4946H89.3185V27.8594C89.3185 28.4042 89.4382 28.8096 89.6757 29.0739C89.9151 29.3294 90.2776 29.458 90.7634 29.458C91.0957 29.458 91.3939 29.4276 91.6583 29.3686C91.9226 29.3008 92.1441 29.2061 92.3227 29.0882L92.3995 31.4387Z" fill="white"/>
<path d="M99.2599 32.1674H103.734V34.4429H96.2932V25.4946H103.566V27.7701H99.2581V32.1674H99.2599ZM103.045 28.8167V30.9904H99.0563V28.8167H103.045Z" fill="white"/>
<path d="M109.203 34.6465C108.487 34.6465 107.823 34.5358 107.21 34.3143C106.604 34.0839 106.076 33.7606 105.624 33.3427C105.181 32.9247 104.836 32.43 104.588 31.8602C104.342 31.2887 104.218 30.6582 104.218 29.9688C104.218 29.2776 104.342 28.6471 104.588 28.0773C104.836 27.5076 105.181 27.011 105.624 26.5949C106.076 26.1769 106.604 25.8572 107.21 25.6357C107.823 25.4053 108.489 25.291 109.203 25.291C110.08 25.291 110.857 25.4446 111.531 25.7518C112.213 26.059 112.775 26.502 113.218 27.0807L111.313 28.781C111.048 28.4488 110.754 28.1934 110.43 28.013C110.114 27.8255 109.757 27.7326 109.357 27.7326C109.041 27.7326 108.757 27.7844 108.5 27.8862C108.244 27.988 108.023 28.138 107.835 28.3327C107.656 28.5292 107.515 28.7667 107.414 29.0489C107.312 29.3222 107.26 29.6294 107.26 29.9688C107.26 30.3099 107.312 30.6207 107.414 30.9011C107.515 31.1744 107.656 31.4084 107.835 31.6048C108.023 31.8013 108.244 31.9495 108.5 32.0514C108.755 32.1532 109.041 32.205 109.357 32.205C109.757 32.205 110.116 32.1157 110.43 31.937C110.754 31.7495 111.048 31.4905 111.313 31.1565L113.218 32.8569C112.775 33.4284 112.213 33.8714 111.531 34.1857C110.855 34.4929 110.08 34.6465 109.203 34.6465Z" fill="white"/>
<path d="M119.843 30.2867L117.069 30.0063L119.639 25.4946H122.785L119.843 30.2867ZM115.944 31.2083V28.831H119.332V31.2083H115.944ZM113.795 34.4429V25.4946H116.812V34.4429H113.795ZM119.37 34.4429L117.146 30.2492L119.55 28.8435L122.772 34.4429H119.37Z" fill="white"/>
<path d="M123.129 34.4429V25.4946H126.096V30.1474L129.177 25.4946H132.015V34.4429H129.048V29.8027L125.982 34.4429H123.129Z" fill="white"/>
<path d="M137.784 24.9819C136.77 24.9819 136.05 24.7943 135.623 24.4193C135.205 24.0353 134.996 23.4905 134.996 22.7832H137.004C137.004 23.0636 137.059 23.2726 137.17 23.4101C137.289 23.5369 137.493 23.6012 137.784 23.6012C138.082 23.6012 138.291 23.5369 138.411 23.4101C138.531 23.2744 138.59 23.0654 138.59 22.7832H140.597C140.597 23.4905 140.379 24.0353 139.945 24.4193C139.518 24.7943 138.799 24.9819 137.784 24.9819ZM133.347 34.4428V25.4945H136.314V30.1472L139.395 25.4945H142.233V34.4428H139.266V29.8025L136.198 34.4428H133.347Z" fill="white"/>
<path d="M4.65809 47.6349V37.7793H7.41937V47.6349H4.65809ZM5.97622 44.3628H6.11732H6.25842C6.94963 44.3628 7.50332 44.3074 7.91948 44.1967C8.33742 44.077 8.63927 43.8949 8.82681 43.6466C9.01435 43.3912 9.10723 43.059 9.10723 42.65C9.10723 42.2409 9.00899 41.9177 8.81431 41.6783C8.61784 41.4318 8.31063 41.2515 7.89447 41.1407C7.48546 41.03 6.95321 40.9746 6.29593 40.9746H6.14232H5.97622C5.24214 40.9746 4.65451 41.03 4.21156 41.1407C3.77755 41.2425 3.46141 41.4176 3.26672 41.664C3.07025 41.9123 2.97202 42.2427 2.97202 42.6607C2.97202 43.0786 3.08276 43.4144 3.30423 43.6698C3.52571 43.9181 3.85792 44.0967 4.30087 44.2074C4.75275 44.311 5.31001 44.3628 5.97622 44.3628ZM5.70652 46.6633C4.47055 46.6633 3.43105 46.5097 2.58801 46.2025C1.75212 45.8953 1.12163 45.4434 0.696545 44.8468C0.269671 44.2503 0.0571289 43.5216 0.0571289 42.6607C0.0571289 41.7998 0.269671 41.0746 0.696545 40.487C1.12163 39.8905 1.75748 39.4386 2.60051 39.1314C3.44355 38.8242 4.48484 38.6706 5.71902 38.6706H5.92442H6.28164H6.47275C7.69086 38.6706 8.70893 38.8277 9.52874 39.1439C10.3557 39.4511 10.9773 39.903 11.3952 40.4995C11.8131 41.0871 12.0203 41.8069 12.0203 42.6589C12.0203 43.5019 11.8167 44.2217 11.4077 44.8201C11.0076 45.4166 10.4057 45.8721 9.60555 46.1882C8.80538 46.5043 7.81232 46.6615 6.62635 46.6615H6.37094H5.96193H5.70652V46.6633Z" fill="white"/>
<path d="M17.3965 44.9379C17.6787 44.9379 17.9377 44.8861 18.177 44.7843C18.4253 44.6825 18.6378 44.5378 18.8165 44.3502C19.004 44.1538 19.1487 43.9198 19.2505 43.6465C19.3523 43.3661 19.4041 43.05 19.4041 42.7017C19.4041 42.3516 19.3541 42.0408 19.2505 41.7676C19.1487 41.4871 19.0022 41.2514 18.8165 41.0638C18.6378 40.8674 18.4235 40.7191 18.177 40.6173C17.9377 40.5155 17.6787 40.4637 17.3965 40.4637C17.1161 40.4637 16.8518 40.5137 16.6035 40.6173C16.3642 40.7191 16.1516 40.8692 15.9641 41.0638C15.7855 41.2514 15.6444 41.4854 15.5426 41.7676C15.4407 42.0408 15.389 42.3516 15.389 42.7017C15.389 43.05 15.439 43.3661 15.5426 43.6465C15.6444 43.9198 15.7855 44.1538 15.9641 44.3502C16.1516 44.5378 16.3642 44.6825 16.6035 44.7843C16.8518 44.8861 17.1161 44.9379 17.3965 44.9379ZM17.3965 47.3794C16.6731 47.3794 15.9998 47.2633 15.3764 47.0347C14.762 46.8043 14.2298 46.481 13.7779 46.0631C13.326 45.638 12.9724 45.1397 12.717 44.5681C12.4705 43.9984 12.3455 43.375 12.3455 42.7017C12.3455 42.0194 12.4687 41.3978 12.717 40.8352C12.9724 40.2655 13.326 39.7707 13.7779 39.3528C14.2298 38.9277 14.762 38.599 15.3764 38.3686C15.998 38.1382 16.6714 38.0239 17.3965 38.0239C18.1306 38.0239 18.8039 38.1382 19.4166 38.3686C20.031 38.599 20.5632 38.9277 21.0151 39.3528C21.467 39.7707 21.8171 40.2655 22.0636 40.8352C22.319 41.3978 22.4476 42.0194 22.4476 42.7017C22.4476 43.375 22.319 43.9966 22.0636 44.5681C21.8171 45.1397 21.467 45.638 21.0151 46.0631C20.5632 46.481 20.031 46.8043 19.4166 47.0347C18.8039 47.2651 18.1306 47.3794 17.3965 47.3794Z" fill="white"/>
<path d="M26.2931 44.0179L24.9517 42.6497H27.3933C27.8112 42.6497 28.1184 42.5551 28.3131 42.3693C28.5167 42.1818 28.6203 41.9264 28.6203 41.6013C28.6203 41.2762 28.5185 41.0226 28.3131 40.8333C28.1167 40.6457 27.8112 40.5529 27.3933 40.5529H24.9517L26.2931 39.1847V44.0179ZM23.2764 47.1739V38.2256H27.5844C28.4203 38.2256 29.1401 38.3613 29.7456 38.6346C30.3582 38.9079 30.8315 39.299 31.1637 39.8098C31.4959 40.3135 31.662 40.9101 31.662 41.5995C31.662 42.2889 31.4959 42.8873 31.1637 43.3892C30.8315 43.8911 30.3582 44.284 29.7456 44.5644C29.1401 44.8377 28.4203 44.9734 27.5844 44.9734H24.9517L26.2931 43.6821V47.1721H23.2764V47.1739Z" fill="white"/>
<path d="M35.5217 45.8968L31.3547 38.2274H34.5375L37.1577 43.8143L35.5217 45.8968ZM32.8372 44.8359C33.3659 44.9716 33.7785 45.0199 34.0767 44.977C34.375 44.9252 34.6394 44.743 34.8698 44.4269L35.3038 43.8125L35.5592 43.5303L38.1544 38.2256H41.0693L37.4774 44.9627C37.0863 45.695 36.613 46.2665 36.0593 46.6756C35.5145 47.0756 34.9091 47.3061 34.2446 47.3668C33.5802 47.4257 32.8765 47.3078 32.1353 47.0096L32.8372 44.8359Z" fill="white"/>
<path d="M41.4407 47.1739V38.2256H43.9216L47.5009 44.0679H46.197L49.6745 38.2256H52.1536L52.1804 47.1739H49.4316L49.4048 42.3675H49.8406L47.4634 46.3701H46.1327L43.6536 42.3675H44.1895V47.1739H41.4407Z" fill="white"/>
<path d="M85.6429 38.1045H55.7849V47.2046H85.6429V38.1045Z" fill="#0080C5"/>
<path d="M31.6156 50.8999H0.0500488V60H31.6156V50.8999Z" fill="#0080C5"/>
<path d="M59.7678 0H0.0500488V9.10011H59.7678V0Z" fill="#0080C5"/>
</svg>
