<svg width="747" height="59" viewBox="0 0 747 59" fill="none" xmlns="http://www.w3.org/2000/svg">
<path d="M23.75 30.07H24.45V29.37H23.75V30.07ZM0.3 30.07H-0.4V30.77H0.3V30.07ZM0.3 22.86V22.16H-0.4V22.86H0.3ZM23.75 22.86V23.56H24.45V22.86H23.75ZM23.75 9.21H24.45V8.51H23.75V9.21ZM0.3 9.21H-0.4V9.91H0.3V9.21ZM0.3 2V1.3H-0.4V2H0.3ZM30.96 2H31.66V1.3H30.96V2ZM30.96 51V51.7H31.66V51H30.96ZM0.3 51H-0.4V51.7H0.3V51ZM0.3 43.79V43.09H-0.4V43.79H0.3ZM23.75 43.79V44.49H24.45V43.79H23.75ZM23.75 29.37H0.3V30.77H23.75V29.37ZM1 30.07V22.86H-0.4V30.07H1ZM0.3 23.56H23.75V22.16H0.3V23.56ZM24.45 22.86V9.21H23.05V22.86H24.45ZM23.75 8.51H0.3V9.91H23.75V8.51ZM1 9.21V2H-0.4V9.21H1ZM0.3 2.7H30.96V1.3H0.3V2.7ZM30.26 2V51H31.66V2H30.26ZM30.96 50.3H0.3V51.7H30.96V50.3ZM1 51V43.79H-0.4V51H1ZM0.3 44.49H23.75V43.09H0.3V44.49ZM24.45 43.79V30.07H23.05V43.79H24.45ZM51.4727 51V51.7H52.1727V51H51.4727ZM44.3327 51H43.6327V51.7H44.3327V51ZM44.3327 2V1.3H43.6327V2H44.3327ZM76.6027 2H77.3027V1.3H76.6027V2ZM76.6027 51V51.7H77.3027V51H76.6027ZM69.3927 51H68.6927V51.7H69.3927V51ZM69.3927 30.14H70.0927V29.44H69.3927V30.14ZM51.4727 30.14V29.44H50.7727V30.14H51.4727ZM51.4727 9.21V8.51H50.7727V9.21H51.4727ZM51.4727 22.93H50.7727V23.63H51.4727V22.93ZM69.3927 22.93V23.63H70.0927V22.93H69.3927ZM69.3927 9.21H70.0927V8.51H69.3927V9.21ZM51.4727 50.3H44.3327V51.7H51.4727V50.3ZM45.0327 51V2H43.6327V51H45.0327ZM44.3327 2.7H76.6027V1.3H44.3327V2.7ZM75.9027 2V51H77.3027V2H75.9027ZM76.6027 50.3H69.3927V51.7H76.6027V50.3ZM70.0927 51V30.14H68.6927V51H70.0927ZM69.3927 29.44H51.4727V30.84H69.3927V29.44ZM50.7727 30.14V51H52.1727V30.14H50.7727ZM50.7727 9.21V22.93H52.1727V9.21H50.7727ZM51.4727 23.63H69.3927V22.23H51.4727V23.63ZM70.0927 22.93V9.21H68.6927V22.93H70.0927ZM69.3927 8.51H51.4727V9.91H69.3927V8.51ZM169.702 1.37H170.402V0.283058L169.412 0.7327L169.702 1.37ZM169.702 9.56L169.992 10.1968L170.402 10.01V9.56H169.702ZM132.742 26.43L132.451 25.7932L131.053 26.4313L132.452 27.0673L132.742 26.43ZM169.702 43.23H170.402V42.7793L169.991 42.5927L169.702 43.23ZM169.702 51.49L169.413 52.1277L170.402 52.5751V51.49H169.702ZM131.342 34.13L131.63 33.4923L130.642 33.0449V34.13H131.342ZM131.342 51V51.7H132.042V51H131.342ZM124.132 51H123.432V51.7H124.132V51ZM124.132 2V1.3H123.432V2H124.132ZM131.342 2H132.042V1.3H131.342V2ZM131.342 18.8H130.642V19.8869L131.631 19.4373L131.342 18.8ZM169.002 1.37V9.56H170.402V1.37H169.002ZM169.411 8.9232L132.451 25.7932L133.032 27.0668L169.992 10.1968L169.411 8.9232ZM132.452 27.0673L169.412 43.8673L169.991 42.5927L133.031 25.7927L132.452 27.0673ZM169.002 43.23V51.49H170.402V43.23H169.002ZM169.99 50.8523L131.63 33.4923L131.053 34.7677L169.413 52.1277L169.99 50.8523ZM130.642 34.13V51H132.042V34.13H130.642ZM131.342 50.3H124.132V51.7H131.342V50.3ZM124.832 51V2H123.432V51H124.832ZM124.132 2.7H131.342V1.3H124.132V2.7ZM130.642 2V18.8H132.042V2H130.642ZM131.631 19.4373L169.991 2.00729L169.412 0.7327L131.052 18.1627L131.631 19.4373ZM229.038 36.79L229.682 37.0657L230.066 36.1696L229.094 36.0922L229.038 36.79ZM231.068 28.88V29.58H231.707L231.765 28.9434L231.068 28.88ZM186.408 28.88V28.18H185.62L185.713 28.9625L186.408 28.88ZM191.728 39.73L192.223 39.235L192.223 39.235L191.728 39.73ZM218.328 39.73L218.823 40.225L218.831 40.217L218.839 40.2088L218.328 39.73ZM221.128 36.16L221.184 35.4622L220.755 35.4281L220.531 35.795L221.128 36.16ZM191.728 13.13L192.223 13.625L192.223 13.625L191.728 13.13ZM186.828 21.67L186.152 21.4896L185.917 22.37H186.828V21.67ZM223.228 21.67V22.37H224.139L223.904 21.4896L223.228 21.67ZM218.328 13.13L217.833 13.625L217.833 13.625L218.328 13.13ZM228.395 36.5143C224.511 45.5756 215.519 51.91 205.028 51.91V53.31C216.098 53.31 225.585 46.6244 229.682 37.0657L228.395 36.5143ZM205.028 51.91C190.925 51.91 179.548 40.5334 179.548 26.43H178.148C178.148 41.3066 190.152 53.31 205.028 53.31V51.91ZM179.548 26.43C179.548 12.3266 190.925 0.949998 205.028 0.949998V-0.450002C190.152 -0.450002 178.148 11.5534 178.148 26.43H179.548ZM205.028 0.949998C219.132 0.949998 230.508 12.3266 230.508 26.43H231.908C231.908 11.5534 219.905 -0.450002 205.028 -0.450002V0.949998ZM230.508 26.43C230.508 27.2351 230.441 28.0471 230.371 28.8166L231.765 28.9434C231.835 28.1729 231.908 27.3049 231.908 26.43H230.508ZM231.068 28.18H186.408V29.58H231.068V28.18ZM185.713 28.9625C186.222 33.2545 188.186 37.1782 191.233 40.225L192.223 39.235C189.39 36.4018 187.574 32.7655 187.103 28.7975L185.713 28.9625ZM191.233 40.225C194.933 43.9249 199.801 45.96 205.028 45.96V44.56C200.176 44.56 195.663 42.675 192.223 39.235L191.233 40.225ZM205.028 45.96C210.256 45.96 215.123 43.9249 218.823 40.225L217.833 39.235C214.393 42.675 209.881 44.56 205.028 44.56V45.96ZM218.839 40.2088C219.907 39.0692 220.922 37.8404 221.725 36.525L220.531 35.795C219.795 36.9996 218.849 38.1508 217.817 39.2512L218.839 40.2088ZM221.073 36.8578L228.983 37.4878L229.094 36.0922L221.184 35.4622L221.073 36.8578ZM205.028 6.9C199.801 6.9 194.933 8.93505 191.233 12.635L192.223 13.625C195.663 10.1849 200.176 8.3 205.028 8.3V6.9ZM191.233 12.635C188.763 15.1056 187.022 18.2255 186.152 21.4896L187.504 21.8504C188.314 18.8145 189.934 15.9144 192.223 13.625L191.233 12.635ZM186.828 22.37H223.228V20.97H186.828V22.37ZM223.904 21.4896C223.034 18.2255 221.294 15.1056 218.823 12.635L217.833 13.625C220.123 15.9144 221.742 18.8145 222.552 21.8504L223.904 21.4896ZM218.823 12.635C215.123 8.93505 210.256 6.9 205.028 6.9V8.3C209.881 8.3 214.393 10.1849 217.833 13.625L218.823 12.635ZM258.968 51L258.273 51.0801L258.344 51.7H258.968V51ZM254.068 8.44L254.763 8.35993L254.692 7.74H254.068V8.44ZM249.868 8.44V7.74H249.168V8.44H249.868ZM249.868 51V51.7H250.568V51H249.868ZM242.448 51H241.748V51.7H242.448V51ZM242.448 2V1.3H241.748V2H242.448ZM260.858 2L261.554 1.9251L261.487 1.3H260.858V2ZM265.408 44.28L264.712 44.3549L264.779 44.98H265.408V44.28ZM269.468 44.28V44.98H270.097L270.164 44.3549L269.468 44.28ZM274.018 2V1.3H273.389L273.322 1.9251L274.018 2ZM292.428 2H293.128V1.3H292.428V2ZM292.428 51V51.7H293.128V51H292.428ZM284.728 51L284.028 50.9977L284.026 51.7H284.728V51ZM284.868 8.58L285.568 8.58231L285.57 7.88H284.868V8.58ZM280.738 8.58V7.88H280.116L280.043 8.49741L280.738 8.58ZM275.698 51V51.7H276.32L276.393 51.0826L275.698 51ZM259.663 50.9199L254.763 8.35993L253.373 8.52006L258.273 51.0801L259.663 50.9199ZM254.068 7.74H249.868V9.14H254.068V7.74ZM249.168 8.44V51H250.568V8.44H249.168ZM249.868 50.3H242.448V51.7H249.868V50.3ZM243.148 51V2H241.748V51H243.148ZM242.448 2.7H260.858V1.3H242.448V2.7ZM260.162 2.0749L264.712 44.3549L266.104 44.2051L261.554 1.9251L260.162 2.0749ZM265.408 44.98H269.468V43.58H265.408V44.98ZM270.164 44.3549L274.714 2.0749L273.322 1.9251L268.772 44.2051L270.164 44.3549ZM274.018 2.7H292.428V1.3H274.018V2.7ZM291.728 2V51H293.128V2H291.728ZM292.428 50.3H284.728V51.7H292.428V50.3ZM285.428 51.0023L285.568 8.58231L284.168 8.57769L284.028 50.9977L285.428 51.0023ZM284.868 7.88H280.738V9.28H284.868V7.88ZM280.043 8.49741L275.003 50.9174L276.393 51.0826L281.433 8.66259L280.043 8.49741ZM275.698 50.3H258.968V51.7H275.698V50.3ZM345.369 9.28V8.58H344.669V9.28H345.369ZM345.369 21.04H344.669V21.74H345.369V21.04ZM373.859 21.04H374.559V20.34H373.859V21.04ZM373.859 51V51.7H374.559V51H373.859ZM338.159 51H337.459V51.7H338.159V51ZM338.159 2V1.3H337.459V2H338.159ZM373.859 2H374.559V1.3H373.859V2ZM373.859 9.28V9.98H374.559V9.28H373.859ZM345.369 28.25V27.55H344.669V28.25H345.369ZM345.369 43.72H344.669V44.42H345.369V43.72ZM366.579 43.72V44.42H367.279V43.72H366.579ZM366.579 28.25H367.279V27.55H366.579V28.25ZM344.669 9.28V21.04H346.069V9.28H344.669ZM345.369 21.74H373.859V20.34H345.369V21.74ZM373.159 21.04V51H374.559V21.04H373.159ZM373.859 50.3H338.159V51.7H373.859V50.3ZM338.859 51V2H337.459V51H338.859ZM338.159 2.7H373.859V1.3H338.159V2.7ZM373.159 2V9.28H374.559V2H373.159ZM373.859 8.58H345.369V9.98H373.859V8.58ZM344.669 28.25V43.72H346.069V28.25H344.669ZM345.369 44.42H366.579V43.02H345.369V44.42ZM367.279 43.72V28.25H365.879V43.72H367.279ZM366.579 27.55H345.369V28.95H366.579V27.55ZM387.11 33.64H386.41V34.34H387.11V33.64ZM387.11 2V1.3H386.41V2H387.11ZM394.32 2H395.02V1.3H394.32V2ZM394.32 26.5H393.62V27.2H394.32V26.5ZM412.87 26.5V27.2H413.57V26.5H412.87ZM412.87 2V1.3H412.17V2H412.87ZM420.08 2H420.78V1.3H420.08V2ZM420.08 33.64V34.34H420.78V33.64H420.08ZM407.2 33.64V32.94H406.5V33.64H407.2ZM407.2 51V51.7H407.9V51H407.2ZM399.99 51H399.29V51.7H399.99V51ZM399.99 33.64H400.69V32.94H399.99V33.64ZM387.81 33.64V2H386.41V33.64H387.81ZM387.11 2.7H394.32V1.3H387.11V2.7ZM393.62 2V26.5H395.02V2H393.62ZM394.32 27.2H412.87V25.8H394.32V27.2ZM413.57 26.5V2H412.17V26.5H413.57ZM412.87 2.7H420.08V1.3H412.87V2.7ZM419.38 2V33.64H420.78V2H419.38ZM420.08 32.94H407.2V34.34H420.08V32.94ZM406.5 33.64V51H407.9V33.64H406.5ZM407.2 50.3H399.99V51.7H407.2V50.3ZM400.69 51V33.64H399.29V51H400.69ZM399.99 32.94H387.11V34.34H399.99V32.94ZM433.427 43.65V44.35H434.127V43.65H433.427ZM433.427 2V1.3H432.727V2H433.427ZM465.977 2H466.677V1.3H465.977V2ZM465.977 43.65H465.277V44.35H465.977V43.65ZM475.147 43.65H475.847V42.95H475.147V43.65ZM475.147 50.86V51.56H475.847V50.86H475.147ZM424.257 50.86H423.557V51.56H424.257V50.86ZM424.257 43.65V42.95H423.557V43.65H424.257ZM440.637 9.14V8.44H439.937V9.14H440.637ZM440.637 43.65H439.937V44.35H440.637V43.65ZM458.837 43.65V44.35H459.537V43.65H458.837ZM458.837 9.14H459.537V8.44H458.837V9.14ZM434.127 43.65V2H432.727V43.65H434.127ZM433.427 2.7H465.977V1.3H433.427V2.7ZM465.277 2V43.65H466.677V2H465.277ZM465.977 44.35H475.147V42.95H465.977V44.35ZM474.447 43.65V50.86H475.847V43.65H474.447ZM475.147 50.16H424.257V51.56H475.147V50.16ZM424.957 50.86V43.65H423.557V50.86H424.957ZM424.257 44.35H433.427V42.95H424.257V44.35ZM439.937 9.14V43.65H441.337V9.14H439.937ZM440.637 44.35H458.837V42.95H440.637V44.35ZM459.537 43.65V9.14H458.137V43.65H459.537ZM458.837 8.44H440.637V9.84H458.837V8.44ZM481.432 33.64H480.732V34.34H481.432V33.64ZM481.432 2V1.3H480.732V2H481.432ZM488.642 2H489.342V1.3H488.642V2ZM488.642 26.5H487.942V27.2H488.642V26.5ZM507.192 26.5V27.2H507.892V26.5H507.192ZM507.192 2V1.3H506.492V2H507.192ZM514.402 2H515.102V1.3H514.402V2ZM514.402 33.64V34.34H515.102V33.64H514.402ZM501.522 33.64V32.94H500.822V33.64H501.522ZM501.522 51V51.7H502.222V51H501.522ZM494.312 51H493.612V51.7H494.312V51ZM494.312 33.64H495.012V32.94H494.312V33.64ZM482.132 33.64V2H480.732V33.64H482.132ZM481.432 2.7H488.642V1.3H481.432V2.7ZM487.942 2V26.5H489.342V2H487.942ZM488.642 27.2H507.192V25.8H488.642V27.2ZM507.892 26.5V2H506.492V26.5H507.892ZM507.192 2.7H514.402V1.3H507.192V2.7ZM513.702 2V33.64H515.102V2H513.702ZM514.402 32.94H501.522V34.34H514.402V32.94ZM500.822 33.64V51H502.222V33.64H500.822ZM501.522 50.3H494.312V51.7H501.522V50.3ZM495.012 51V33.64H493.612V51H495.012ZM494.312 32.94H481.432V34.34H494.312V32.94ZM528.423 2V1.3H527.723V2H528.423ZM535.633 2H536.333V1.3H535.633V2ZM535.633 43.79H534.933V44.49H535.633V43.79ZM546.203 43.79V44.49H546.903V43.79H546.203ZM546.203 2V1.3H545.503V2H546.203ZM553.413 2H554.113V1.3H553.413V2ZM553.413 43.79H552.713V44.49H553.413V43.79ZM564.053 43.79V44.49H564.753V43.79H564.053ZM564.053 2V1.3H563.353V2H564.053ZM571.263 2H571.963V1.3H571.263V2ZM571.263 43.79H570.563V44.49H571.263V43.79ZM580.573 43.79H581.273V43.09H580.573V43.79ZM580.573 58.98V59.68H581.273V58.98H580.573ZM573.363 58.98H572.663V59.68H573.363V58.98ZM573.363 51H574.063V50.3H573.363V51ZM528.423 51H527.723V51.7H528.423V51ZM528.423 2.7H535.633V1.3H528.423V2.7ZM534.933 2V43.79H536.333V2H534.933ZM535.633 44.49H546.203V43.09H535.633V44.49ZM546.903 43.79V2H545.503V43.79H546.903ZM546.203 2.7H553.413V1.3H546.203V2.7ZM552.713 2V43.79H554.113V2H552.713ZM553.413 44.49H564.053V43.09H553.413V44.49ZM564.753 43.79V2H563.353V43.79H564.753ZM564.053 2.7H571.263V1.3H564.053V2.7ZM570.563 2V43.79H571.963V2H570.563ZM571.263 44.49H580.573V43.09H571.263V44.49ZM579.873 43.79V58.98H581.273V43.79H579.873ZM580.573 58.28H573.363V59.68H580.573V58.28ZM574.063 58.98V51H572.663V58.98H574.063ZM573.363 50.3H528.423V51.7H573.363V50.3ZM529.123 51V2H527.723V51H529.123ZM636.064 36.79L636.707 37.0657L637.091 36.1696L636.119 36.0922L636.064 36.79ZM638.094 28.88V29.58H638.733L638.791 28.9434L638.094 28.88ZM593.434 28.88V28.18H592.646L592.738 28.9625L593.434 28.88ZM598.754 39.73L599.248 39.235L599.248 39.235L598.754 39.73ZM625.354 39.73L625.848 40.225L625.856 40.217L625.864 40.2088L625.354 39.73ZM628.154 36.16L628.209 35.4622L627.78 35.4281L627.556 35.795L628.154 36.16ZM598.754 13.13L599.248 13.625L599.248 13.625L598.754 13.13ZM593.854 21.67L593.177 21.4896L592.942 22.37H593.854V21.67ZM630.254 21.67V22.37H631.165L630.93 21.4896L630.254 21.67ZM625.354 13.13L624.859 13.625L624.859 13.625L625.354 13.13ZM635.42 36.5143C631.537 45.5756 622.544 51.91 612.054 51.91V53.31C623.123 53.31 632.61 46.6244 636.707 37.0657L635.42 36.5143ZM612.054 51.91C597.95 51.91 586.574 40.5334 586.574 26.43H585.174C585.174 41.3066 597.177 53.31 612.054 53.31V51.91ZM586.574 26.43C586.574 12.3266 597.95 0.949998 612.054 0.949998V-0.450002C597.177 -0.450002 585.174 11.5534 585.174 26.43H586.574ZM612.054 0.949998C626.157 0.949998 637.534 12.3266 637.534 26.43H638.934C638.934 11.5534 626.93 -0.450002 612.054 -0.450002V0.949998ZM637.534 26.43C637.534 27.2351 637.466 28.0471 637.396 28.8166L638.791 28.9434C638.861 28.1729 638.934 27.3049 638.934 26.43H637.534ZM638.094 28.18H593.434V29.58H638.094V28.18ZM592.738 28.9625C593.248 33.2545 595.212 37.1782 598.259 40.225L599.248 39.235C596.415 36.4018 594.599 32.7655 594.129 28.7975L592.738 28.9625ZM598.259 40.225C601.959 43.9249 606.826 45.96 612.054 45.96V44.56C607.201 44.56 602.689 42.675 599.248 39.235L598.259 40.225ZM612.054 45.96C617.281 45.96 622.149 43.9249 625.848 40.225L624.859 39.235C621.419 42.675 616.906 44.56 612.054 44.56V45.96ZM625.864 40.2088C626.933 39.0692 627.947 37.8404 628.751 36.525L627.556 35.795C626.82 36.9996 625.874 38.1508 624.843 39.2512L625.864 40.2088ZM628.098 36.8578L636.008 37.4878L636.119 36.0922L628.209 35.4622L628.098 36.8578ZM612.054 6.9C606.826 6.9 601.959 8.93505 598.259 12.635L599.248 13.625C602.689 10.1849 607.201 8.3 612.054 8.3V6.9ZM598.259 12.635C595.788 15.1056 594.048 18.2255 593.177 21.4896L594.53 21.8504C595.339 18.8145 596.959 15.9144 599.248 13.625L598.259 12.635ZM593.854 22.37H630.254V20.97H593.854V22.37ZM630.93 21.4896C630.059 18.2255 628.319 15.1056 625.848 12.635L624.859 13.625C627.148 15.9144 628.768 18.8145 629.577 21.8504L630.93 21.4896ZM625.848 12.635C622.149 8.93505 617.281 6.9 612.054 6.9V8.3C616.906 8.3 621.419 10.1849 624.859 13.625L625.848 12.635ZM699.733 36.79L700.377 37.0657L700.761 36.1696L699.789 36.0922L699.733 36.79ZM701.763 28.88V29.58H702.403L702.461 28.9434L701.763 28.88ZM657.103 28.88V28.18H656.315L656.408 28.9625L657.103 28.88ZM662.423 39.73L662.918 39.235L662.918 39.235L662.423 39.73ZM689.023 39.73L689.518 40.225L689.526 40.217L689.534 40.2088L689.023 39.73ZM691.823 36.16L691.879 35.4622L691.45 35.4281L691.226 35.795L691.823 36.16ZM662.423 13.13L662.918 13.625L662.918 13.625L662.423 13.13ZM657.523 21.67L656.847 21.4896L656.612 22.37H657.523V21.67ZM693.923 21.67V22.37H694.835L694.6 21.4896L693.923 21.67ZM689.023 13.13L688.528 13.625L688.528 13.625L689.023 13.13ZM699.09 36.5143C695.207 45.5756 686.214 51.91 675.723 51.91V53.31C686.793 53.31 696.28 46.6244 700.377 37.0657L699.09 36.5143ZM675.723 51.91C661.62 51.91 650.243 40.5334 650.243 26.43H648.843C648.843 41.3066 660.847 53.31 675.723 53.31V51.91ZM650.243 26.43C650.243 12.3266 661.62 0.949998 675.723 0.949998V-0.450002C660.847 -0.450002 648.843 11.5534 648.843 26.43H650.243ZM675.723 0.949998C689.827 0.949998 701.203 12.3266 701.203 26.43H702.603C702.603 11.5534 690.6 -0.450002 675.723 -0.450002V0.949998ZM701.203 26.43C701.203 27.2351 701.136 28.0471 701.066 28.8166L702.461 28.9434C702.531 28.1729 702.603 27.3049 702.603 26.43H701.203ZM701.763 28.18H657.103V29.58H701.763V28.18ZM656.408 28.9625C656.918 33.2545 658.882 37.1782 661.928 40.225L662.918 39.235C660.085 36.4018 658.269 32.7655 657.799 28.7975L656.408 28.9625ZM661.928 40.225C665.628 43.9249 670.496 45.96 675.723 45.96V44.56C670.871 44.56 666.358 42.675 662.918 39.235L661.928 40.225ZM675.723 45.96C680.951 45.96 685.818 43.9249 689.518 40.225L688.528 39.235C685.088 42.675 680.576 44.56 675.723 44.56V45.96ZM689.534 40.2088C690.602 39.0692 691.617 37.8404 692.421 36.525L691.226 35.795C690.49 36.9996 689.544 38.1508 688.513 39.2512L689.534 40.2088ZM691.768 36.8578L699.678 37.4878L699.789 36.0922L691.879 35.4622L691.768 36.8578ZM675.723 6.9C670.496 6.9 665.628 8.93505 661.928 12.635L662.918 13.625C666.358 10.1849 670.871 8.3 675.723 8.3V6.9ZM661.928 12.635C659.458 15.1056 657.718 18.2255 656.847 21.4896L658.2 21.8504C659.009 18.8145 660.629 15.9144 662.918 13.625L661.928 12.635ZM657.523 22.37H693.923V20.97H657.523V22.37ZM694.6 21.4896C693.729 18.2255 691.989 15.1056 689.518 12.635L688.528 13.625C690.818 15.9144 692.438 18.8145 693.247 21.8504L694.6 21.4896ZM689.518 12.635C685.818 8.93505 680.951 6.9 675.723 6.9V8.3C680.576 8.3 685.088 10.1849 688.528 13.625L689.518 12.635ZM741.093 30.49L740.597 29.995L740.591 30.002L741.093 30.49ZM732.063 35.32L731.923 34.6341L731.363 34.7484V35.32H732.063ZM732.063 41.97V42.67H732.763V41.97H732.063ZM725.063 41.97H724.363V42.67H725.063V41.97ZM725.063 27.76L725.359 27.1257L724.363 26.6609V27.76H725.063ZM719.463 12.99L719.249 13.6567L719.801 13.8333L720.078 13.3243L719.463 12.99ZM712.463 10.75L711.819 10.4743L711.516 11.182L712.249 11.4167L712.463 10.75ZM716.103 5.43L715.613 4.92981L715.608 4.93502L716.103 5.43ZM741.093 5.43L740.598 5.92497L740.598 5.92497L741.093 5.43ZM745.643 17.96C745.643 22.5281 743.831 26.7618 740.598 29.995L741.587 30.985C745.074 27.4982 747.043 22.9119 747.043 17.96H745.643ZM740.591 30.002C738.248 32.4116 735.228 33.9595 731.923 34.6341L732.202 36.0059C735.757 35.2805 739.037 33.6084 741.594 30.978L740.591 30.002ZM731.363 35.32V41.97H732.763V35.32H731.363ZM732.063 41.27H725.063V42.67H732.063V41.27ZM725.763 41.97V27.76H724.363V41.97H725.763ZM724.766 28.3943C725.954 28.9486 727.336 29.09 728.633 29.09V27.69C727.409 27.69 726.271 27.5514 725.359 27.1257L724.766 28.3943ZM728.633 29.09C734.759 29.09 739.763 24.0866 739.763 17.96H738.363C738.363 23.3134 733.986 27.69 728.633 27.69V29.09ZM739.763 17.96C739.763 11.8334 734.759 6.83 728.633 6.83V8.23C733.986 8.23 738.363 12.6066 738.363 17.96H739.763ZM728.633 6.83C724.373 6.83 720.714 9.22196 718.847 12.6557L720.078 13.3243C721.711 10.318 724.912 8.23 728.633 8.23V6.83ZM719.676 12.3233L712.676 10.0833L712.249 11.4167L719.249 13.6567L719.676 12.3233ZM713.106 11.0257C713.908 9.15302 715.116 7.40631 716.597 5.92497L715.608 4.93502C714.009 6.53368 712.697 8.42698 711.819 10.4743L713.106 11.0257ZM716.592 5.93016C719.827 2.7626 724.064 0.949998 728.633 0.949998V-0.450002C723.681 -0.450002 719.098 1.5174 715.613 4.92984L716.592 5.93016ZM728.633 0.949998C733.134 0.949998 737.437 2.76433 740.598 5.92497L741.587 4.93502C738.168 1.51567 733.511 -0.450002 728.633 -0.450002V0.949998ZM740.598 5.92497C743.83 9.15709 745.643 13.4604 745.643 17.96H747.043C747.043 13.0796 745.075 8.42291 741.587 4.93502L740.598 5.92497ZM733.253 49.46C733.253 46.866 731.291 44.7 728.633 44.7V46.1C730.454 46.1 731.853 47.574 731.853 49.46H733.253ZM728.633 44.7C726.068 44.7 723.943 46.8413 723.943 49.46H725.343C725.343 47.5987 726.857 46.1 728.633 46.1V44.7ZM723.943 49.46C723.943 51.9546 726.084 54.08 728.633 54.08V52.68C726.841 52.68 725.343 51.1654 725.343 49.46H723.943ZM728.633 54.08C731.275 54.08 733.253 51.9302 733.253 49.46H731.853C731.853 51.1898 730.47 52.68 728.633 52.68V54.08Z" fill="white"/>
</svg>
