<svg width="192" height="60" viewBox="0 0 192 60" fill="none" xmlns="http://www.w3.org/2000/svg">
<path d="M82.2322 56.6669L82.2969 56.5373L82.4364 56.6071C82.556 56.6669 82.6308 56.6569 82.7155 56.4825L83.3981 55.0824L81.7389 55.8996L81.694 55.9843C81.6093 56.1636 81.6492 56.2234 81.7638 56.2832L81.9033 56.348L81.8385 56.4775L80.6477 55.8996L80.7125 55.77L80.852 55.8398C80.9716 55.8946 81.0463 55.8896 81.131 55.7152L81.983 53.9713C82.0677 53.792 82.0279 53.7321 81.9133 53.6724L81.7738 53.6076L81.8385 53.478L83.0294 54.056L82.9646 54.1856L82.8251 54.1158C82.7055 54.056 82.6357 54.066 82.5461 54.2404L81.8684 55.6255L83.5276 54.8084L83.5625 54.7386C83.6472 54.5593 83.6074 54.4995 83.4928 54.4397L83.3532 54.3699L83.418 54.2404L84.6088 54.8183L84.5441 54.9479L84.4045 54.8831C84.285 54.8233 84.2152 54.8333 84.1255 55.0077L83.2735 56.7516C83.1888 56.9309 83.2287 56.9908 83.3433 57.0505L83.4828 57.1203L83.418 57.2498L82.2322 56.6669Z" fill="white"/>
<path d="M85.3113 58.0069C84.9376 57.8724 84.3995 57.5435 84.6138 56.9356C84.6636 56.8011 84.8081 56.7313 84.9426 56.7762C85.0771 56.826 85.1469 56.9705 85.102 57.1051C85.0622 57.2197 84.9177 57.3044 84.7832 57.2595C84.7732 57.2545 84.7582 57.2495 84.7483 57.2446C84.7782 57.5385 85.0074 57.7279 85.2814 57.8225C85.5804 57.9272 85.9042 57.7528 86.0288 57.399C86.1583 57.0303 86.0238 56.7912 85.7697 56.7015C85.7249 56.6865 85.5903 56.6417 85.4409 56.6118L85.5106 56.4175C85.6501 56.4922 85.7797 56.542 85.8195 56.557C86.0438 56.6367 86.258 56.4922 86.3876 56.1334C86.5071 55.7946 86.3826 55.5605 86.1484 55.4757C85.8793 55.3811 85.5654 55.4409 85.2117 56.0537L85.0722 56.0039L85.4508 55.0771L85.5754 55.122L85.5654 55.3861C85.7747 55.2864 86.0338 55.2814 86.3178 55.3811C86.8858 55.5804 87.11 55.9242 86.9605 56.3427C86.8559 56.6317 86.552 56.8011 86.1185 56.7314C86.5719 56.9606 86.7313 57.2894 86.6117 57.6282C86.4573 58.1016 85.8395 58.1962 85.3113 58.0069Z" fill="white"/>
<path d="M89.5316 56.6814C89.5615 56.5519 89.5366 56.512 89.437 56.4871L88.9536 56.3725C88.8241 56.3426 88.7593 56.4223 88.7294 56.5618C88.565 57.2643 88.3557 57.8174 88.1315 58.216C88.0319 58.4004 87.9223 58.515 87.8126 58.5847L88.8889 58.8388C88.9885 58.8638 89.0284 58.8388 89.0583 58.7093L89.5316 56.6814ZM89.696 59.9051C89.7359 59.2873 89.5864 59.1528 89.3572 59.0979L87.8774 58.7492C87.6383 58.6944 87.4439 58.7243 87.1948 59.3172L87.0503 59.2823L87.2895 58.4602L87.5635 58.5249C87.8475 58.4801 88.2262 57.8623 88.5451 56.517C88.5899 56.3227 88.5102 56.2679 88.3856 56.238L88.2312 56.2031L88.266 56.0586L90.553 56.5967L90.5182 56.7412L90.3637 56.7063C90.2342 56.6764 90.1694 56.7013 90.1246 56.8907L89.6761 58.8089C89.6363 58.9784 89.6961 59.0282 89.8156 59.0581L89.995 59.0979L89.8455 59.94L89.696 59.9051Z" fill="white"/>
<path d="M91.8136 58.5L92.6506 58.5947L92.3517 57.4736L91.8136 58.5ZM92.4812 59.5862L92.4962 59.4417L92.6905 59.4617C92.7852 59.4716 92.84 59.4617 92.845 59.3869C92.8499 59.3521 92.84 59.3072 92.8201 59.2424L92.7005 58.779L91.7239 58.6694L91.5495 59.0132C91.5146 59.0681 91.4947 59.1328 91.4897 59.1876C91.4798 59.2723 91.5246 59.3371 91.6541 59.3471L91.7936 59.362L91.7787 59.5065L90.9067 59.4069L90.9217 59.2624L90.9715 59.2673C91.1409 59.2873 91.2605 59.1876 91.3652 58.9883L92.5111 56.8159L92.7852 56.8458L93.4429 59.3072C93.4977 59.5065 93.5774 59.5613 93.692 59.5713L93.7418 59.5763L93.7269 59.7208L92.4812 59.5862Z" fill="white"/>
<path d="M95.8147 57.2096C95.6951 57.2096 95.6502 57.2345 95.6452 57.4437L95.6303 58.2908L95.9093 58.2958C96.1136 58.3007 96.2531 58.226 96.273 57.7676H96.4126L96.3926 58.9834H96.2531C96.2531 58.52 96.1136 58.4452 95.9093 58.4402L95.6303 58.4353L95.6153 59.377C95.6104 59.5763 95.6751 59.6161 95.8047 59.6161L96.2133 59.6211C96.5222 59.6261 96.6965 59.6261 96.856 58.7541H97.0005L96.9158 59.7756L94.6338 59.7357V59.5912H94.7882C94.9178 59.5962 94.9825 59.5563 94.9875 59.357L95.0174 57.4188C95.0224 57.2195 94.9577 57.1797 94.8281 57.1797H94.6737V57.0352L96.8759 57.07L96.9208 57.9719H96.7763C96.6567 57.2245 96.4724 57.2096 96.2232 57.2046L95.8147 57.2096Z" fill="white"/>
<path d="M100.239 57.7728C100.04 57.0553 99.9054 56.9557 99.6712 56.9806L99.5018 57.0005C99.3772 57.0154 99.3423 57.0453 99.3672 57.2496L99.5715 59.1779C99.5914 59.3772 99.6612 59.4071 99.7907 59.3921L99.9452 59.3772L99.9602 59.5217L98.6448 59.6612L98.6298 59.5167L98.7843 59.5017C98.9138 59.4868 98.9736 59.4419 98.9537 59.2476L98.7494 57.3194C98.7295 57.1101 98.6896 57.0902 98.57 57.1001L98.3956 57.1201C98.1664 57.145 98.0519 57.2745 98.002 58.0169L97.8575 58.0319L97.8226 57.0354L100.224 56.7812L100.394 57.7628L100.239 57.7728Z" fill="white"/>
<path d="M102.785 59.0785C102.128 59.223 101.46 58.8941 101.271 58.0172C101.086 57.1702 101.45 56.4925 102.197 56.3281C102.437 56.2733 102.716 56.3281 102.93 56.4876L102.97 56.1637L103.099 56.1338L103.378 57.1602L103.234 57.1901C102.915 56.4776 102.526 56.4078 102.282 56.4577C101.898 56.5424 101.669 56.8313 101.888 57.8478C102.073 58.7048 102.446 58.9489 102.835 58.8642C103.229 58.7795 103.473 58.4407 103.463 57.9126L103.607 57.8827C103.672 58.6849 103.174 58.9938 102.785 59.0785Z" fill="white"/>
<path d="M105.67 55.7846C105.61 55.6002 105.521 55.5852 105.411 55.6251L105.222 55.6899C104.958 55.7796 104.893 56.0536 105.003 56.3675C105.117 56.7014 105.336 56.8708 105.64 56.7661L105.964 56.6565L105.67 55.7846ZM106.089 58.0965L106.044 57.957L106.188 57.9071C106.318 57.8623 106.363 57.8075 106.298 57.6181L106.014 56.7861L105.765 56.8707C105.207 57.0601 105.944 58.1513 105.072 58.4453C104.858 58.515 104.684 58.4203 104.529 58.0267L104.669 57.9819C104.768 58.236 104.833 58.2858 104.918 58.2559C105.117 58.1911 104.699 57.374 105.386 56.9505C104.883 57.0701 104.524 56.9056 104.405 56.5618C104.225 56.0387 104.619 55.7347 105.242 55.5205L106.467 55.1069L106.517 55.2465L106.373 55.2963C106.248 55.3361 106.198 55.391 106.263 55.5853L106.886 57.4238C106.951 57.6132 107.02 57.6281 107.145 57.5833L107.29 57.5334L107.334 57.673L106.089 58.0965Z" fill="white"/>
<path d="M111.106 55.9544C110.513 56.2782 109.781 56.1487 109.357 55.3565C108.944 54.5941 109.103 53.8418 109.776 53.4731C109.995 53.3535 110.274 53.3285 110.523 53.4232L110.468 53.1043L110.588 53.0396L111.146 53.9464L111.016 54.0161C110.508 53.4232 110.12 53.4581 109.9 53.5777C109.557 53.767 109.417 54.1108 109.91 55.0226C110.329 55.7949 110.752 55.9245 111.106 55.7351C111.46 55.5408 111.599 55.1472 111.445 54.644L111.574 54.5742C111.849 55.3266 111.455 55.76 111.106 55.9544Z" fill="white"/>
<path d="M115.252 52.6857C115.371 52.8401 115.446 52.8351 115.551 52.7504L115.845 52.5212L115.934 52.6358L114.589 53.6772L114.499 53.5626L114.793 53.3334C114.898 53.2537 114.923 53.1839 114.803 53.0295L113.807 51.744C113.707 51.6144 113.652 51.5895 113.592 51.6393C113.577 51.6493 113.568 51.6642 113.538 51.6892L113.298 51.9582L113.209 51.8436C113.717 51.2407 113.727 51.0663 113.702 50.877L113.802 50.8022L115.252 52.6857Z" fill="white"/>
<path d="M116.612 50.4283C116.557 50.6824 116.557 50.9016 116.726 51.076C116.976 51.3401 117.304 51.3102 117.559 51.076C117.798 50.8468 117.843 50.6176 117.628 50.3934C117.384 50.1343 117.01 50.3137 116.612 50.4283ZM116.712 49.7905C116.766 49.5264 116.741 49.3022 116.612 49.1677C116.383 48.9236 116.134 48.9535 115.924 49.1528C115.755 49.3122 115.675 49.5912 115.884 49.8104C116.089 50.0197 116.383 49.9151 116.712 49.7905ZM116.871 49.7307C117.21 49.6111 117.564 49.5265 117.848 49.8254C118.231 50.229 118.052 50.8119 117.658 51.1856C117.235 51.5892 116.786 51.6141 116.522 51.3301C116.358 51.1607 116.258 50.8917 116.447 50.4681C116.163 50.5279 115.884 50.5279 115.64 50.2688C115.277 49.8852 115.431 49.4168 115.835 49.0332C116.193 48.6943 116.587 48.6595 116.831 48.9235C117 49.0979 117.05 49.367 116.871 49.7307Z" fill="white"/>
<path d="M119.512 47.9125C119.223 47.6633 118.929 47.6035 118.744 47.8128C118.555 48.032 118.7 48.3659 118.969 48.6C119.327 48.909 119.601 48.9588 119.791 48.7346C119.945 48.5552 119.97 48.3111 119.512 47.9125ZM119.905 48.8342C119.412 49.4022 118.799 49.2328 118.211 48.7296C117.603 48.2064 117.394 47.4391 117.902 46.8512C118.087 46.6369 118.46 46.4326 118.724 46.6618C118.849 46.7715 118.859 46.9458 118.754 47.0654C118.655 47.18 118.475 47.195 118.356 47.0953C118.266 47.0206 118.246 46.891 118.301 46.7665C118.161 46.7665 118.057 46.8661 117.997 46.9359C117.713 47.2597 117.942 47.7381 118.565 48.2762C118.495 48.0619 118.505 47.7979 118.695 47.5836C119.098 47.1152 119.562 47.1999 119.856 47.4491C120.279 47.8178 120.264 48.4157 119.905 48.8342Z" fill="white"/>
<path d="M121.679 45.8148C121.844 45.9294 121.908 45.8995 121.983 45.7899L122.197 45.486L122.317 45.5707L121.34 46.9658L121.221 46.8811L121.435 46.5772C121.51 46.4675 121.515 46.3978 121.355 46.2832L120.025 45.3515C119.89 45.2568 119.831 45.2468 119.786 45.3116C119.776 45.3265 119.771 45.3415 119.751 45.3764L119.601 45.7052L119.482 45.6205C119.791 44.8931 119.751 44.7237 119.666 44.5542L119.736 44.4546L121.679 45.8148Z" fill="white"/>
<path d="M69.2626 22.8499L69.5316 22.7503L69.5814 22.4712C71.8784 10.0298 82.9198 0.99641 95.8395 0.99641C101.948 0.99641 107.698 2.97449 112.461 6.71639L112.666 6.87584L112.915 6.8011C121.141 4.28491 132.616 3.01436 147.01 3.01436C159.278 3.01436 173.179 4.01585 184.2 5.69498C184.2 5.69498 184.529 5.7448 184.803 5.78466C184.928 6.45232 190.204 35.0074 190.463 36.4025C189.875 36.2729 189.193 36.1285 189.193 36.1285C178.386 33.8066 161.998 32.3666 146.437 32.3666C136.976 32.3666 128.51 32.8948 121.958 33.8913L121.639 33.9411L121.55 34.25C118.366 45.5604 107.788 53.4578 95.8346 53.4578C89.8953 53.4578 84.2451 51.5545 79.5017 47.9471L79.2626 47.7677L78.9885 47.8923C64.7583 54.4095 48.8141 57.7179 31.6094 57.7179C22.0727 57.7179 11.5546 56.6068 1.68411 54.5938C1.68411 54.5938 1.30543 54.5141 0.996512 54.4493V25.964C1.45491 26.0338 1.98305 26.1085 1.98305 26.1085C14.2202 27.8973 24.7035 28.824 33.5227 28.824C46.7165 28.829 58.4056 26.8709 69.2626 22.8499ZM68.6647 21.9979C57.987 25.9142 46.4923 27.8275 33.5227 27.8275C24.7533 27.8325 14.3199 26.9107 2.12753 25.127L0 24.818V55.2715L1.48978 55.5804C11.43 57.6033 22.0129 58.7244 31.6143 58.7244C48.8639 58.7244 64.858 55.4209 79.1579 48.9187C84.0309 52.536 89.7807 54.4693 95.8395 54.4693C108.127 54.4693 118.998 46.4174 122.412 34.8529C128.874 33.8863 137.16 33.3731 146.437 33.3731C161.938 33.3731 178.241 34.8031 188.984 37.11L191.719 37.7029L185.655 4.91271L184.35 4.71341C173.283 3.02931 159.322 2.01784 147.01 2.01784C132.651 2.01784 121.171 3.2884 112.865 5.78466C107.962 2.00788 102.083 0.00488483 95.8346 0.00488483C82.5411 -9.77333e-05 71.1709 9.23758 68.6647 21.9979Z" fill="white"/>
<path d="M155.83 14.31C155.396 14.2652 155.162 14.2652 154.684 14.2652V16.7515C153.822 16.7515 153.393 16.7067 152.531 16.7067V7.23979C153.249 7.23979 153.822 7.2398 154.589 7.28465L157.598 12.6907L158.366 12.7405L157.598 6.18848C154.968 5.99914 152.292 5.99914 149.611 5.99914C148.699 5.99914 147.743 5.99914 146.836 6.04897V7.19495H148.415V29.0036H146.836V30.1496C150.518 30.1496 154.15 30.1945 157.788 30.3888L158.65 22.5462C158.366 22.5462 158.221 22.5462 157.932 22.5014L154.534 29.1033L152.526 29.0086V18.7246C153.388 18.7694 153.817 18.7694 154.679 18.7694V21.3056C155.157 21.3056 155.396 21.3056 155.874 21.3554L155.83 14.31ZM68.4105 26.7017L69.7957 26.1735V47.5985L68.266 48.1217V49.2677C71.2307 48.2612 72.7154 47.738 75.7249 46.4924V45.3464L73.9063 46.0639V24.4944C74.4793 24.2552 74.8629 24.1107 75.4409 23.8267L78.7394 29.0385L79.412 28.7047L78.5949 21.1959C74.5291 23.2039 72.4713 24.0659 68.4105 25.5507V26.7017ZM176.921 11.5397L179.412 24.5941L174.434 24.1157L176.921 11.5397ZM162.098 30.3838C165.012 30.5283 166.497 30.6678 169.417 30.907V29.7111C168.794 29.7111 168.411 29.6613 167.838 29.6165V7.80781L168.361 7.85764L171.564 13.5029L172.282 13.5527L171.515 6.95081C166.876 6.51732 162.332 6.28314 159.94 6.23332L159.173 12.7356L159.89 12.7854L163.094 7.47896H163.667V29.2876C162.994 29.2876 162.71 29.2378 162.088 29.193V30.3838H162.098ZM173.767 8.33596L175.869 8.57513L171.619 29.9055L169.751 29.761V30.907L174.629 31.3355V30.1895L173.194 30.045L174.006 26.0739L179.791 26.6469L180.558 30.8073L179.223 30.6628V31.8088L186.348 32.6708V31.5198L184.718 31.2806L180.224 7.79785C177.643 7.50886 176.348 7.36935 173.767 7.17503V8.33596ZM25.3213 43.4381C25.3213 49.7012 24.4593 54.5293 22.7852 54.5293C21.1111 54.5293 20.2989 49.2677 20.2989 43.1491C20.2989 36.8362 21.116 32.1028 22.7852 32.1028C24.4593 32.1028 25.3213 37.3644 25.3213 43.4381ZM29.3871 43.5826C29.3871 39.1332 28.0518 30.907 22.4065 30.907C17.4289 30.907 16.1883 38.7495 16.1883 42.7655C16.1883 47.2149 17.1948 55.6803 23.124 55.6803C28.5749 55.6803 29.3871 47.6484 29.3871 43.5826ZM52.1026 37.459C52.1026 40.9518 50.9068 43.9613 49.4269 44.2004V31.5796H49.6213C51.0014 31.5796 52.1026 34.0659 52.1026 37.459ZM29.4818 32.8203H31.0114V54.3399H29.4369V55.4909C32.257 55.4909 33.692 55.4909 36.5171 55.3464V54.2004C35.8943 54.2004 35.6552 54.2453 35.0323 54.2453V44.1058H35.8943L38.6198 54.051L37.424 54.1456V55.2916C41.9681 54.9578 46.557 54.5243 51.1958 53.6623V52.5163C50.4783 52.6608 50.1444 52.7057 49.4269 52.8053V45.3464C53.0144 44.7734 55.8844 41.0415 55.8844 36.597C55.8844 32.6259 53.5425 30.329 50.5281 30.329C50.1943 30.329 49.8604 30.3788 49.5266 30.4236C47.3293 30.7575 46.2282 30.902 43.9761 31.1411V32.2871L45.4608 32.0978V53.3783C44.8878 53.473 44.5042 53.5228 42.6407 53.7121L40.2989 44.8631C39.8704 43.189 38.7244 42.332 37.6233 42.0878L41.6392 32.4765L43.0742 32.332V31.186C41.2107 31.3753 40.2541 31.4251 38.3906 31.5198V32.6708L39.6312 32.621L35.71 42.0928H35.0373V32.8153H36.567V31.6195C34.8928 31.6693 33.7468 31.7141 32.4563 31.7141C31.5944 31.7141 30.6377 31.7141 29.4917 31.6643V32.8203H29.4818ZM142.486 12.0629C142.486 14.8382 141.241 17.0853 139.666 17.18V7.13516C141.34 7.14014 142.486 9.29262 142.486 12.0629ZM142.486 23.5427C142.486 26.4625 141.241 28.8492 139.666 28.899V18.3808C141.34 18.3808 142.486 20.6229 142.486 23.5427ZM133.926 7.42913L135.506 7.33446V29.1431L133.926 29.2378V30.3838C139.427 30.05 146.358 30.6678 146.358 23.4979C146.358 20.5333 144.878 18.5253 142.676 17.6633C144.639 16.7067 145.974 14.7934 145.974 12.0181C145.974 8.0968 143.298 5.94434 139.995 5.94434C137.459 5.94434 136.313 6.08882 133.921 6.23332V7.42913H133.926ZM11.5047 47.7879C11.5047 50.5133 10.3537 52.6658 8.96857 52.6658H8.72939V42.0978C10.259 42.337 11.4549 44.8731 11.5047 47.7879ZM2.9895 29.9055L4.56398 30.1944V52.0031L2.9895 51.7141V52.91C5.23664 53.3385 6.43246 53.4829 8.72443 53.8666C9.10809 53.9114 9.49174 53.9613 9.87042 53.9613C12.9795 53.9613 15.2765 52.0031 15.2765 48.2712C15.2765 45.3066 13.7917 43.1541 11.689 41.9134C13.6023 41.2906 14.8928 39.5716 14.8928 36.7465C14.8928 32.1576 12.2172 30.4336 8.77425 29.8108L2.9895 28.7595V29.9055ZM11.4549 36.313C11.4549 38.9438 10.3537 40.9518 9.06324 40.9518C8.96858 40.9518 8.8689 40.9518 8.72939 40.907V30.8621C10.259 31.1013 11.4549 33.5377 11.4549 36.313ZM127.713 30.1446C126.183 30.1446 124.938 25.456 124.938 19.1431C124.938 12.8801 126.373 7.42913 128.425 7.42913C129.332 7.42913 130.294 7.9523 130.483 9.48693C128.759 10.2991 128.281 11.7839 128.281 13.169C128.281 15.4162 129.477 16.8013 130.912 16.8013C132.397 16.8013 133.493 14.888 133.493 12.7356C133.493 8.28613 130.812 6.27816 128.565 6.27816C122.441 6.27816 120.772 15.2219 120.772 19.8606C120.772 23.9762 122.257 31.2906 127.369 31.2906C130.095 31.2906 133.632 27.5138 133.632 21.5348L129.761 21.8188C129.766 26.7963 128.809 30.1446 127.713 30.1446ZM61.6691 27.753C58.8988 28.5203 57.5087 28.899 54.7334 29.5218V30.623C55.3562 30.5283 55.69 30.4336 56.3128 30.2891L58.9437 40.907C59.2326 42.1028 60.1395 43.5876 61.4299 43.5876C61.9083 43.5876 63.5824 43.0146 64.1106 41.0066C63.5376 44.9279 63.2037 46.9359 61.5246 49.0883C61.5744 49.0385 61.6193 48.899 61.6193 48.7993C61.6193 46.7914 60.9466 45.4062 59.706 45.4062C58.271 45.4062 56.9805 47.0804 56.9805 49.1332C56.9805 50.7625 58.0318 52.1975 59.3223 52.1975C62.0029 52.1975 63.8166 48.2762 64.4892 46.313C66.4972 40.1446 66.3079 30.9119 66.547 27.3245C67.0254 27.18 67.3094 27.0853 67.7877 26.896L67.8325 25.75C65.969 26.4177 65.0572 26.7067 63.1938 27.2796V28.4256C63.8614 28.1865 64.1953 28.0918 64.8679 27.9025C64.8181 31.0564 64.7234 33.4481 64.6287 35.2667C64.4344 38.904 64.0508 40.0948 63.3831 40.0948C62.9994 40.0948 62.6656 39.5667 62.4265 38.4207L60.3736 29.2378C60.8968 29.0933 61.136 29.0485 61.6641 28.8541V27.753H61.6691Z" fill="white"/>
<path d="M81.6592 21.0661C82.0628 20.7671 83.0244 20.0845 84.5242 19.2425C86.866 17.9271 90.5581 16.2928 93.3334 15.5155C93.5376 15.4557 93.6971 15.4109 93.8316 15.371C94.3199 16.6764 95.2217 17.668 96.3528 18.4054C95.3812 19.7108 91.7638 24.9724 89.148 30.2041C85.8147 28.0616 82.5909 24.3944 81.6592 21.0661ZM83.3134 9.66098C84.0309 9.5414 84.8331 9.43178 85.6652 9.45171C90.6577 9.58126 93.6124 10.8967 94.0309 11.096C93.7618 11.5643 93.5825 12.0825 93.5227 12.6356C93.4529 13.2285 93.4778 13.7816 93.5625 14.2997C92.85 14.499 90.6677 15.1368 87.9621 16.2081C85.1769 17.3142 82.1973 19.2574 81.3104 19.8503C80.578 16.8109 80.8072 13.0142 83.3134 9.66098ZM85.9691 42.8648C86.4275 40.6176 87.4639 36.8558 89.8157 32.0875C93.5376 34.1403 98.4604 35.4158 103.612 34.783C103.622 34.783 103.637 34.7781 103.652 34.7781C103.652 34.5339 103.652 34.2948 103.652 34.0357C103.652 33.8613 103.642 33.6819 103.637 33.5075C103.607 33.5125 97.1948 34.7532 90.3936 30.9415C93.6672 24.5837 96.6168 20.2639 97.4539 19.073C97.4589 19.073 97.4639 19.078 97.4639 19.073C99.0533 19.8254 100.777 20.0397 102.093 19.8553C102.098 19.8553 102.098 19.8553 102.103 19.8553C102.018 19.4567 101.913 19.0631 101.824 18.6645C98.9786 19.0681 94.305 16.8259 94.7982 12.6854C95.0125 10.8767 96.577 9.58625 98.6547 9.29228C98.5152 9.01824 98.3707 8.75914 98.2262 8.51001C96.7862 8.73423 95.5257 9.35206 94.6737 10.2489C94.2203 10.0446 91.6492 8.94349 87.9073 8.5997C86.4724 8.47015 85.2716 8.50005 84.1355 8.69935C84.275 8.54489 87.0404 6.08848 89.995 5.10692C91.714 4.53392 93.144 4.32466 94.016 4.22501C94.2153 4.22003 94.5341 4.1702 94.8829 4.42929C95.8396 5.09696 96.8261 6.09346 98.2312 8.51499C98.4106 8.48509 100.234 8.03169 102.925 9.17767C104.748 6.80099 106.363 6.3725 107.06 6.33264C107.255 6.32267 107.18 6.23298 107.08 6.18315C103.782 4.46417 99.9103 3.44773 95.9542 3.44773C95.6203 3.44773 88.5052 3.10393 83.1938 8.51499C83.0493 8.66446 82.9347 8.75914 82.8052 8.9136C78.8192 9.89018 77.6233 11.928 77.3941 12.2569L77.5187 12.3615C78.6298 11.3849 80.279 10.4133 82.0628 9.90512C78.4106 15.3112 80.3936 20.9166 80.4534 21.1358C81.156 23.652 83.4629 28.0616 88.5949 31.3451C87.6482 33.2634 85.8894 36.9853 84.8431 42.2669C80.1694 39.5563 78.2212 37.0451 77.3892 35.939V37.1597C79.1331 40.5429 84.5889 43.4328 84.6487 43.4627C84.4644 45.7198 84.7035 46.9106 84.9377 47.7228C85.1221 47.8772 85.6403 48.2111 85.9442 48.3356C85.8296 47.653 85.5904 45.8593 85.7897 44.0606C92.7105 47.4687 98.2163 47.364 101.764 47.095C101.923 46.7711 102.138 46.223 102.242 45.9589C102.222 45.9589 102.207 45.9639 102.192 45.9639C97.2795 46.228 92.0528 45.8892 85.9691 42.8648ZM117.947 18.4054C117.917 18.3356 117.833 18.3207 117.848 18.4104C118.087 19.9599 118.266 23.8663 115.436 28.241C117.569 33.368 117.21 36.7412 116.811 38.1612C116.791 38.2409 116.856 38.3207 116.951 38.1463C117.275 37.5633 117.748 36.5269 118.107 35.5005C119.033 32.8598 119.656 30.0496 119.656 27.085C119.656 23.951 119.123 21.081 117.947 18.4054ZM101.819 18.6645C101.834 18.6645 101.844 18.6645 101.859 18.6595C104.016 18.3356 105.745 17.2046 105.999 15.1567C106.338 12.4163 104.061 10.0994 101.006 9.39691C100.802 9.35207 99.7758 9.1428 98.6497 9.29228C99.0035 9.97489 99.3523 10.7223 99.6761 11.5643C100.538 13.7915 101.241 16.1931 101.819 18.6645ZM106.373 34.2599C104.798 34.6585 103.667 34.7731 103.652 34.7781C103.652 40.8767 103.169 43.5573 102.222 45.9689C102.247 45.9689 102.267 45.9639 102.292 45.9589C108.027 45.5205 112.162 42.9644 114.17 41.1557C114.674 40.6973 115.69 39.6759 115.974 38.1214C116.109 37.3939 116.198 36.6266 116.198 35.8593C116.198 33.657 115.7 31.4796 114.709 29.2624C112.197 32.3416 108.754 33.657 106.373 34.2599ZM114.185 28.1662C113.727 27.2594 113.204 26.3575 112.626 25.4507C110.483 22.1024 106.891 18.9784 105.84 18.0965C104.938 19.0332 103.652 19.6311 102.118 19.8503C102.108 19.8503 102.103 19.8553 102.098 19.8553C103.069 24.3844 103.568 29.1079 103.632 33.5075C111.251 32.4462 113.921 28.5648 114.185 28.1662ZM98.8142 50.3984C98.6547 50.518 98.7843 50.5628 98.864 50.5528C104.813 49.8553 109.99 47.2943 113.548 42.9295C113.627 42.8249 113.563 42.79 113.498 42.8399C108.46 46.7512 101.809 47.095 101.744 47.0999C100.937 48.804 99.7509 49.7805 98.8142 50.3984ZM104.031 9.75067C105.326 10.5529 106.303 11.6391 106.806 12.8648C111.963 12.8548 115.755 15.1219 116.811 16.1034C116.891 16.1682 116.961 16.1283 116.911 16.0436C115.042 12.217 112.526 9.33213 108.515 7.04514C108.43 6.99033 108.236 6.86577 108.017 6.91062C107.688 6.97539 107.045 7.09497 106.373 7.5135C105.381 8.13134 104.345 9.3421 104.031 9.75067ZM115.845 16.4273C114.604 15.645 113.184 15.0272 111.495 14.5937C109.387 14.0556 107.529 13.9858 107.095 13.9858C107.16 14.4592 107.2 15.0222 107.12 15.5155C107.02 16.1134 106.831 16.6465 106.572 17.1249C107.713 18.0965 112.636 22.4662 114.933 27.1398C116.901 24.1552 117.245 21.1657 117.18 19.1278C117.175 18.4901 116.881 17.08 115.845 16.4273Z" fill="white"/>
</svg>
