<svg width="43" height="43" viewBox="0 0 43 43" fill="none" xmlns="http://www.w3.org/2000/svg">
<g filter="url(#filter0_dd_74_26)">
<path fill-rule="evenodd" clip-rule="evenodd" d="M21.5 32C28.9558 32 35 25.9558 35 18.5C35 11.0442 28.9558 5 21.5 5C14.0442 5 8 11.0442 8 18.5C8 25.9558 14.0442 32 21.5 32Z" fill="white"/>
</g>
<g clip-path="url(#clip0_74_26)">
<path fill-rule="evenodd" clip-rule="evenodd" d="M27.9565 15.1194C27.9472 15.0142 27.9349 14.9106 27.9164 14.8067C27.8993 14.7032 27.8747 14.6009 27.847 14.4999C27.8206 14.3976 27.7885 14.2983 27.7515 14.199C27.7146 14.0997 27.6728 14.0034 27.6266 13.907L27.6174 13.8906C27.5681 13.79 27.5127 13.6907 27.4538 13.5943C27.3892 13.4938 27.321 13.3945 27.2489 13.3011C27.175 13.2064 27.0976 13.116 27.0145 13.0285C26.9327 12.9428 26.8465 12.8612 26.7555 12.7826L26.7462 12.7767C26.6583 12.701 26.5672 12.6301 26.4701 12.5633C26.3715 12.4953 26.2695 12.4298 26.1649 12.3706C26.0571 12.3127 25.9476 12.2595 25.8363 12.2104C25.7238 12.1614 25.6099 12.1188 25.4925 12.0816C25.3922 12.049 25.2888 12.0207 25.1842 11.9971C25.0795 11.9734 24.9744 11.954 24.868 11.9392C24.7633 11.9244 24.6569 11.9138 24.5505 11.9079C24.4441 11.902 24.3376 11.9003 24.233 11.9032L24.1943 11.9049H24.1802L24.174 11.8931L24.1556 11.8618C24.1002 11.7684 24.0381 11.681 23.9673 11.6011C23.8965 11.5212 23.8178 11.4456 23.7329 11.3805C23.6468 11.3125 23.554 11.2529 23.4555 11.2043C23.3569 11.154 23.2536 11.1126 23.1441 11.0784C23.0764 11.059 23.0082 11.0412 22.9392 11.0294C22.8697 11.0175 22.7989 11.0087 22.7294 11.0028C22.6586 10.9981 22.5891 10.9981 22.5183 11.0011C22.4506 11.004 22.3811 11.0116 22.3116 11.0205V11.0218C22.2408 11.0323 22.1713 11.0471 22.1036 11.0661C22.0372 11.0868 21.9708 11.1092 21.9079 11.1371C21.8464 11.1638 21.7848 11.1963 21.7276 11.2305C21.6691 11.266 21.615 11.3045 21.5627 11.3476L21.5596 11.3505C21.4796 11.4173 21.4101 11.4912 21.3499 11.5698C21.2883 11.6527 21.2373 11.7418 21.1955 11.8352C21.1524 11.9328 21.1216 12.0338 21.1014 12.1403C21.0781 12.2497 21.0688 12.3626 21.0688 12.4779V23.3581C21.0688 23.4469 21.0798 23.5331 21.1014 23.6159C21.1229 23.7034 21.1555 23.7862 21.1968 23.8677C21.2417 23.9523 21.2971 24.0338 21.3587 24.1107C21.4264 24.1923 21.502 24.2692 21.5821 24.3372C21.6608 24.4053 21.7426 24.4674 21.8318 24.524C21.9229 24.5832 22.0183 24.6364 22.1172 24.6841C22.2206 24.7344 22.3283 24.7788 22.4365 24.816C22.5473 24.8561 22.6599 24.8887 22.7725 24.9136H22.7738C22.8939 24.9419 23.0175 24.9639 23.1423 24.9774C23.2655 24.9922 23.3908 24.9998 23.5153 24.9998C23.6397 24.9998 23.7589 24.9926 23.8825 24.9774C24.0012 24.9639 24.1182 24.9419 24.2325 24.9136C24.39 24.8751 24.5408 24.8232 24.6811 24.7594C24.8244 24.6956 24.9586 24.6186 25.0852 24.5312C25.2119 24.4424 25.3271 24.3431 25.4366 24.2333C25.543 24.1221 25.6415 24.0009 25.7295 23.869L25.7466 23.8437L25.7528 23.8331H25.7651L25.7959 23.8301C25.8992 23.8242 26.0026 23.8107 26.1042 23.793C26.2075 23.7752 26.3078 23.7515 26.408 23.7232C26.5083 23.6966 26.6068 23.6641 26.704 23.6256C26.7994 23.5872 26.8953 23.5458 26.9863 23.498C27.0897 23.4448 27.1882 23.3856 27.2841 23.3231C27.3812 23.258 27.4736 23.1895 27.5602 23.1143C27.6464 23.0404 27.73 22.9618 27.8083 22.8789C27.8852 22.7944 27.9595 22.707 28.0273 22.6153C28.095 22.5236 28.1566 22.4285 28.2106 22.3309C28.2678 22.2333 28.3171 22.1323 28.3619 22.0287C28.405 21.9252 28.442 21.8183 28.4745 21.7101C28.5053 21.602 28.5299 21.4908 28.5484 21.3797V21.3784C28.5638 21.2821 28.5748 21.1845 28.5792 21.0864C28.5853 20.9871 28.5853 20.8878 28.5809 20.7885C28.5748 20.6892 28.5655 20.5899 28.5484 20.4923C28.533 20.393 28.5114 20.2954 28.4851 20.2003L28.4771 20.169L28.4727 20.1572L28.482 20.1483L28.5035 20.1247C28.5392 20.0862 28.573 20.0448 28.6051 20.003C28.639 19.9599 28.6698 19.9155 28.6975 19.8711L28.7036 19.8606C28.7313 19.8192 28.756 19.7748 28.7793 19.7317C28.8056 19.6827 28.8285 19.6341 28.8487 19.5863V19.5846L28.8501 19.5829C28.8611 19.5593 28.8703 19.5356 28.8795 19.5119C28.8888 19.4883 28.898 19.4646 28.9059 19.4393C28.9151 19.4139 28.9213 19.389 28.9292 19.3653C28.9354 19.34 28.9433 19.3163 28.9495 19.2897V19.288L28.9587 19.2525L28.9556 19.2508L28.9604 19.2331L28.9697 19.1828C28.9776 19.1443 28.9838 19.1059 28.9868 19.0657C28.993 19.0256 28.9961 18.9859 28.9978 18.9457C29.0009 18.9043 29.0009 18.8642 29.0009 18.8227C28.9991 18.7813 28.9978 18.7399 28.9947 18.6981C28.9873 18.6271 28.9776 18.5557 28.964 18.4864C28.9503 18.4167 28.9314 18.3469 28.9099 18.2806C28.8883 18.2126 28.8637 18.1471 28.8342 18.082C28.8034 18.0169 28.7727 17.9531 28.7357 17.8923C28.7124 17.8521 28.6865 17.8124 28.6601 17.7739C28.6337 17.7355 28.606 17.6983 28.577 17.6611C28.5475 17.6239 28.5167 17.5901 28.4859 17.5559C28.4534 17.5234 28.4213 17.4891 28.3874 17.4566L28.3474 17.4194L28.332 17.4046L28.3461 17.3898L28.38 17.3467C28.4033 17.3201 28.4261 17.2905 28.4477 17.2609C28.471 17.2314 28.4908 17.2001 28.5092 17.1692C28.5295 17.138 28.5462 17.1071 28.5633 17.0746C28.58 17.0433 28.5959 17.0108 28.6095 16.977L28.6157 16.9605C28.6372 16.9102 28.6544 16.857 28.6698 16.8033C28.6852 16.7441 28.6992 16.6833 28.7067 16.6241C28.7159 16.562 28.7208 16.5012 28.7208 16.4403C28.7225 16.3812 28.719 16.3216 28.7133 16.2624L28.7115 16.2548C28.7036 16.194 28.6913 16.1335 28.6777 16.074C28.6623 16.0161 28.6421 15.9569 28.6205 15.9007C28.5972 15.8428 28.5695 15.7866 28.5387 15.7334C28.5123 15.6831 28.4815 15.6358 28.4477 15.5897L28.4367 15.5749C28.4059 15.5348 28.3751 15.4963 28.3413 15.4595C28.3074 15.4224 28.2718 15.3886 28.2366 15.356C28.1997 15.3235 28.161 15.2909 28.1209 15.2614C28.0809 15.2318 28.0391 15.2052 27.9978 15.1798L27.9824 15.1709L27.9591 15.1384L27.9573 15.1177L27.9565 15.1194ZM23.8935 16.3267C23.915 16.2333 23.9322 16.1386 23.9427 16.0435C23.955 15.9489 23.9612 15.8525 23.9625 15.7562L23.9643 15.6556V15.6201L23.9981 15.6379L24.0892 15.6869C24.1679 15.7283 24.2387 15.7684 24.3051 15.8099C24.3715 15.8513 24.4331 15.8927 24.4915 15.9404C24.5518 15.9878 24.6072 16.0397 24.6595 16.1006C24.7119 16.1597 24.7629 16.2265 24.8108 16.3034L24.817 16.311L24.8187 16.314C24.842 16.3393 24.8667 16.3554 24.8926 16.3672C24.9203 16.3791 24.9511 16.3837 24.9806 16.382C24.9977 16.382 25.0131 16.3774 25.0285 16.3731C25.0456 16.3685 25.0593 16.3626 25.0734 16.3554C25.0887 16.3465 25.1011 16.3359 25.1134 16.3258C25.1244 16.3152 25.1336 16.3034 25.1411 16.2903C25.1552 16.2666 25.1644 16.24 25.1657 16.2104C25.1657 16.1821 25.1613 16.1496 25.1455 16.1158V16.1141L25.1437 16.1124V16.1095C25.1068 16.0516 25.065 15.9954 25.0219 15.9421C24.9801 15.8872 24.9326 15.8356 24.8847 15.7866C24.8368 15.7376 24.7862 15.692 24.7303 15.6459C24.6824 15.6058 24.6331 15.5673 24.5808 15.5335L24.5623 15.52C24.5162 15.4887 24.47 15.4608 24.4234 15.4342C24.3754 15.4076 24.3262 15.3822 24.2769 15.3602C24.2259 15.3366 24.1754 15.3159 24.1243 15.2964C24.0733 15.277 24.021 15.2609 23.9669 15.2445L23.933 15.2339L23.919 15.2309L23.9172 15.2174L23.908 15.1832C23.9018 15.1549 23.8957 15.1283 23.8895 15.1033C23.8833 15.078 23.8754 15.0514 23.868 15.0218C23.86 14.9935 23.8526 14.9668 23.8433 14.9402C23.8354 14.9136 23.8279 14.8882 23.82 14.8646H23.8183C23.7629 14.6985 23.6903 14.5417 23.6054 14.3922C23.5192 14.2409 23.419 14.0989 23.3046 13.967C23.1907 13.8352 23.0641 13.7135 22.9269 13.6041C22.7897 13.4946 22.6415 13.3983 22.4827 13.3138L22.4796 13.3108C22.4396 13.296 22.4009 13.2901 22.3688 13.2931C22.3332 13.296 22.3011 13.3078 22.2764 13.3273C22.2641 13.3362 22.2531 13.3467 22.2439 13.3556C22.2347 13.3674 22.2254 13.3793 22.2193 13.3928C22.2114 13.4063 22.207 13.4194 22.2039 13.4342C22.1995 13.4477 22.1977 13.4625 22.1977 13.4773C22.196 13.5069 22.2039 13.5394 22.221 13.5677C22.2364 13.5931 22.2597 13.618 22.2936 13.6374L22.2967 13.6387L22.3011 13.6434C22.437 13.716 22.5632 13.7989 22.6806 13.8923C22.7993 13.9869 22.9088 14.0909 23.006 14.2033C23.1045 14.3174 23.1912 14.4403 23.2664 14.5722C23.3402 14.701 23.4022 14.8375 23.4515 14.9795C23.5008 15.1232 23.5346 15.2686 23.5548 15.4164C23.5751 15.5648 23.5795 15.7127 23.5716 15.861C23.561 16.0093 23.5377 16.1559 23.5008 16.2996C23.4638 16.4433 23.4115 16.584 23.3464 16.7205L23.3433 16.7234V16.7251C23.3297 16.7577 23.3297 16.7902 23.3372 16.8185C23.3451 16.8527 23.3649 16.8823 23.3913 16.906C23.4022 16.9149 23.4146 16.9254 23.4269 16.9313C23.4392 16.9402 23.4533 16.9461 23.4669 16.952C23.481 16.958 23.4933 16.9626 23.5069 16.9651C23.5205 16.9681 23.5346 16.9711 23.5487 16.9711C23.5812 16.9728 23.612 16.9651 23.6397 16.9474C23.6643 16.9326 23.6846 16.9089 23.7 16.8764L23.7017 16.8747V16.8718C23.7435 16.786 23.7804 16.6968 23.8112 16.6051C23.8451 16.5147 23.8715 16.4213 23.893 16.3279L23.8935 16.3267ZM22.4378 22.8515C22.4334 22.8604 22.4299 22.8709 22.4268 22.8798C22.4238 22.8904 22.4207 22.9005 22.4189 22.9094V22.9377C22.4207 22.9466 22.422 22.9554 22.4251 22.963V22.9643C22.433 22.9897 22.4466 23.0116 22.4638 23.0311C22.4809 23.0505 22.5038 23.0666 22.5284 23.0771C22.5407 23.083 22.5517 23.0877 22.5654 23.0907C22.5777 23.0936 22.5918 23.0966 22.6041 23.0978C22.6181 23.0995 22.6318 23.0995 22.6441 23.0966C22.6582 23.0966 22.6705 23.0936 22.6828 23.0907C22.7061 23.083 22.7259 23.0742 22.7461 23.0581C22.7633 23.0446 22.7769 23.0285 22.791 23.0078V22.9901L22.7971 22.9825L22.805 22.9749C22.8174 22.9482 22.8314 22.9216 22.8468 22.8963C22.8622 22.8696 22.8794 22.8443 22.8992 22.8194C22.9194 22.7927 22.9409 22.7674 22.9638 22.7437C22.9871 22.7201 23.0117 22.6977 23.0377 22.6787V22.6774C23.0641 22.6567 23.0918 22.6372 23.1208 22.6195C23.1485 22.603 23.178 22.587 23.2087 22.5734C23.2395 22.5586 23.2703 22.5468 23.3029 22.5362C23.3354 22.5257 23.3662 22.5185 23.4 22.5126C23.4326 22.505 23.4665 22.502 23.5003 22.4991C23.5342 22.4978 23.568 22.4978 23.6019 22.4991C23.6358 22.5008 23.6683 22.505 23.7022 22.5109C23.736 22.5168 23.7699 22.5244 23.8007 22.5346H23.8024C23.835 22.5434 23.8658 22.557 23.8965 22.5701C23.9273 22.5836 23.9568 22.5984 23.9858 22.6161C24.0153 22.6326 24.0412 22.6516 24.0689 22.671C24.0936 22.6918 24.1199 22.7141 24.1415 22.7361H24.1428C24.163 22.7556 24.1859 22.7657 24.2092 22.7716C24.2356 22.7775 24.2646 22.7758 24.2923 22.7687C24.3077 22.7644 24.3218 22.7581 24.3354 22.7492C24.3477 22.7433 24.3601 22.7357 24.371 22.7285L24.379 22.7226C24.3913 22.712 24.4023 22.7002 24.4128 22.6871C24.4238 22.6753 24.4331 22.6617 24.4392 22.6486C24.4533 22.622 24.4594 22.5937 24.4577 22.5641C24.4546 22.5375 24.4454 22.5109 24.4269 22.4843L24.4251 22.4796L24.4221 22.4779V22.4762H24.4203C24.3847 22.442 24.3477 22.4095 24.3108 22.3799C24.2708 22.3486 24.229 22.3207 24.1877 22.2954C24.1459 22.27 24.1015 22.2481 24.0549 22.2286C24.0118 22.2079 23.9638 22.1902 23.9163 22.1766L23.9084 22.1737C23.8636 22.1602 23.8161 22.1513 23.7694 22.1424C23.7184 22.1348 23.6692 22.1276 23.6199 22.1259C23.5689 22.123 23.5197 22.123 23.4704 22.1276C23.4212 22.1306 23.3719 22.1365 23.324 22.1454C23.273 22.1542 23.2255 22.1678 23.1793 22.1826C23.1313 22.1973 23.0852 22.2151 23.0403 22.2358C22.9955 22.2552 22.9524 22.2789 22.9093 22.3055C22.8675 22.3321 22.8275 22.3605 22.7892 22.3913C22.7505 22.4209 22.7136 22.4551 22.6797 22.4889C22.6458 22.5231 22.6133 22.5599 22.5843 22.5984C22.5645 22.6237 22.5456 22.6516 22.5289 22.6799C22.5166 22.6964 22.5056 22.7141 22.4963 22.7319H22.4994L22.4823 22.7644L22.4374 22.8502L22.4378 22.8515ZM26.6332 17.888C26.6253 17.8804 26.6161 17.8745 26.6099 17.8703C26.6007 17.8656 26.5927 17.8614 26.5822 17.8585C26.5743 17.8555 26.565 17.8525 26.5558 17.8508H26.5233C26.4969 17.8525 26.4709 17.8597 26.4476 17.8703C26.423 17.8838 26.4014 17.8999 26.3843 17.9223C26.3751 17.9328 26.3689 17.943 26.3627 17.9518C26.3566 17.9637 26.3504 17.9755 26.3474 17.9873C26.3425 17.9979 26.3394 18.011 26.3381 18.0228C26.3368 18.0347 26.335 18.0465 26.3368 18.06C26.3368 18.0837 26.3447 18.1073 26.357 18.131C26.368 18.1517 26.3847 18.1711 26.408 18.1902H26.4094L26.4142 18.1948H26.416V18.1961C26.4406 18.2138 26.4652 18.2333 26.4885 18.254C26.5118 18.2764 26.5347 18.2983 26.5549 18.322C26.5782 18.3474 26.598 18.374 26.6165 18.4019C26.6336 18.4285 26.6504 18.4568 26.6657 18.4864V18.4881H26.6675C26.6811 18.5177 26.6952 18.5472 26.7044 18.5798C26.7154 18.6093 26.7247 18.6419 26.7322 18.6744C26.7383 18.7057 26.7431 18.7382 26.7462 18.7708C26.748 18.802 26.7493 18.8346 26.7462 18.8671V18.8878C26.7431 18.9132 26.7401 18.9381 26.7352 18.9635C26.7291 18.996 26.7212 19.0273 26.7119 19.0598C26.7009 19.0894 26.6904 19.1219 26.675 19.1515C26.6613 19.1811 26.6455 19.2094 26.627 19.2373L26.6165 19.255C26.6024 19.2757 26.587 19.2964 26.5703 19.3159C26.5501 19.3412 26.5272 19.3662 26.5039 19.3886C26.4793 19.411 26.4529 19.4329 26.427 19.4524C26.3992 19.4718 26.3715 19.4908 26.3408 19.5073L26.3359 19.5103C26.3144 19.5234 26.299 19.5415 26.288 19.5605C26.2757 19.5842 26.2726 19.6108 26.2726 19.6374C26.2726 19.6522 26.2757 19.667 26.2805 19.6835C26.2853 19.6983 26.2897 19.7131 26.2977 19.7296C26.3056 19.7431 26.3148 19.7579 26.324 19.7697C26.335 19.7828 26.3474 19.7951 26.3579 19.8039C26.3825 19.8217 26.4089 19.8352 26.4397 19.8411C26.4692 19.8454 26.5 19.8424 26.5321 19.8323L26.5351 19.8293L26.5369 19.8276C26.58 19.8039 26.6231 19.7773 26.6618 19.7477C26.7018 19.7194 26.7387 19.6869 26.7757 19.6544C26.8113 19.6201 26.8452 19.5846 26.876 19.5479C26.9067 19.5107 26.9331 19.4722 26.9591 19.4308H26.9604C26.985 19.3894 27.0083 19.3463 27.0299 19.3019C27.0501 19.2588 27.0686 19.2145 27.0822 19.1684C27.0976 19.1223 27.1086 19.0767 27.1161 19.0277C27.1253 18.9816 27.1301 18.9343 27.1332 18.887V18.8857C27.1363 18.8384 27.1345 18.7911 27.1315 18.7433C27.1284 18.6956 27.1205 18.6486 27.1112 18.6009C27.102 18.5536 27.0897 18.5075 27.0725 18.4615C27.0571 18.4171 27.0387 18.3727 27.0171 18.3283C26.9956 18.284 26.9709 18.2438 26.9446 18.2037C26.9182 18.1623 26.8891 18.1251 26.8584 18.0879C26.8258 18.0524 26.792 18.0182 26.755 17.9844C26.7194 17.9531 26.6811 17.9235 26.6411 17.8956V17.8939L26.6336 17.8893V17.8876L26.6332 17.888ZM24.6441 13.1439C24.6147 13.1456 24.5887 13.1545 24.5685 13.1676C24.5421 13.1853 24.5223 13.2107 24.51 13.2402C24.5039 13.2538 24.5008 13.2669 24.4977 13.2816C24.4964 13.2964 24.4946 13.3112 24.4946 13.3248C24.4946 13.3412 24.4977 13.3543 24.5008 13.3708C24.5025 13.3843 24.5083 13.3974 24.5131 13.411C24.5272 13.4435 24.55 13.4718 24.5826 13.4908C24.612 13.5073 24.6472 13.5162 24.6921 13.5145H24.6982C24.7321 13.5128 24.7646 13.5128 24.7967 13.5145C24.8306 13.5162 24.8645 13.5191 24.897 13.525C24.9296 13.5293 24.9634 13.5386 24.9955 13.5474C25.0188 13.5534 25.0435 13.561 25.0663 13.5711L25.0896 13.58C25.1204 13.5918 25.1499 13.6066 25.1807 13.6231C25.2084 13.6396 25.2378 13.6586 25.2638 13.6793C25.2902 13.6987 25.3161 13.7194 25.3407 13.7431C25.364 13.7668 25.3869 13.7904 25.4085 13.8158V13.8187C25.4287 13.8441 25.4485 13.8707 25.4656 13.8986C25.4841 13.9269 25.4982 13.9565 25.5118 13.9861C25.5259 14.0156 25.5382 14.0469 25.5474 14.0778C25.5567 14.1073 25.5646 14.1386 25.569 14.1695V14.1711L25.5707 14.1728C25.5756 14.2054 25.5782 14.2379 25.58 14.2705C25.5813 14.303 25.58 14.3355 25.5769 14.3681C25.5738 14.4006 25.569 14.4319 25.5615 14.4627C25.5553 14.4923 25.5479 14.5219 25.5369 14.5502L25.5351 14.5519V14.5565C25.5272 14.5819 25.5272 14.6068 25.532 14.6292C25.5399 14.6546 25.5536 14.6782 25.5738 14.6989C25.5848 14.7095 25.5954 14.7196 25.6094 14.7272C25.6235 14.7378 25.6389 14.745 25.6543 14.7509C25.6697 14.7585 25.6851 14.7627 25.7022 14.7657C25.7194 14.7699 25.7348 14.7699 25.7502 14.7699C25.7809 14.7699 25.8104 14.7623 25.8381 14.7463C25.8614 14.7332 25.883 14.7108 25.8997 14.6825L25.9014 14.6782V14.6765C25.9186 14.6322 25.9309 14.5861 25.9415 14.54C25.9524 14.4927 25.9599 14.4454 25.963 14.3976C25.9678 14.3486 25.9692 14.3 25.9678 14.254C25.9661 14.2079 25.9617 14.1623 25.9538 14.1175V14.1099C25.9445 14.0625 25.9335 14.0152 25.9181 13.9692C25.9028 13.9231 25.8856 13.8775 25.8658 13.8344C25.8456 13.79 25.824 13.7469 25.7981 13.7055C25.7735 13.6653 25.744 13.6256 25.715 13.5872C25.6842 13.5487 25.6516 13.5132 25.6165 13.479C25.5808 13.4464 25.5439 13.4139 25.5056 13.3843C25.4656 13.3548 25.4238 13.3281 25.3808 13.3045C25.339 13.2808 25.2946 13.2584 25.2466 13.2394V13.2377C25.2004 13.22 25.1556 13.2035 25.1077 13.1904C25.0597 13.1756 25.0122 13.165 24.9643 13.1578C24.915 13.149 24.8658 13.1443 24.8161 13.143C24.773 13.1401 24.7299 13.1401 24.685 13.143V13.1447H24.6635L24.645 13.1464V13.1447L24.6441 13.1439ZM22.2668 18.3279C22.1419 18.4036 22.0231 18.4881 21.9136 18.581C21.6902 18.7691 21.6098 18.8773 21.4558 19.0983L21.4541 18.8523V12.4792C21.4541 12.3947 21.462 12.3089 21.4774 12.2257C21.4915 12.1458 21.5161 12.0702 21.5469 11.9962C21.5763 11.9265 21.6133 11.8585 21.6595 11.7963C21.7043 11.7372 21.7566 11.6822 21.8182 11.6303C21.8213 11.6286 21.8244 11.626 21.8292 11.6227L21.834 11.6167H21.8358C21.8683 11.5914 21.9022 11.5677 21.9374 11.5441C21.9822 11.5187 22.0267 11.495 22.0733 11.476C22.1212 11.4536 22.1687 11.4376 22.2197 11.4241C22.2628 11.411 22.3077 11.4004 22.3525 11.3928L22.3741 11.3898C22.4282 11.381 22.4818 11.375 22.5359 11.3721C22.5913 11.3704 22.6467 11.3704 22.7026 11.375C22.758 11.3797 22.8121 11.3869 22.8675 11.3974C22.9229 11.408 22.977 11.4198 23.0293 11.4359L23.0509 11.4435C23.1111 11.4612 23.1696 11.4836 23.225 11.5103C23.2883 11.5398 23.3486 11.5741 23.4071 11.6108C23.4643 11.6493 23.5179 11.6907 23.5689 11.7368C23.6199 11.7828 23.6661 11.8314 23.7092 11.8834L23.7541 11.9396L23.7712 11.962L23.7479 11.9738L23.6784 12.0063C23.649 12.0211 23.6199 12.0359 23.5905 12.0537C23.561 12.0702 23.5333 12.0879 23.5073 12.1069C23.4796 12.1264 23.455 12.1454 23.4286 12.1661C23.404 12.1885 23.3794 12.2104 23.3561 12.2341C23.3204 12.2666 23.2883 12.3038 23.2576 12.3423C23.2281 12.3807 23.2004 12.4192 23.1758 12.4606C23.1511 12.502 23.1278 12.5434 23.1094 12.5865C23.0909 12.6296 23.0737 12.674 23.0601 12.7201V12.7213L23.0588 12.7272H23.057C23.0434 12.7598 23.0416 12.7894 23.0478 12.8177C23.0557 12.8473 23.0742 12.8739 23.097 12.8946C23.108 12.9035 23.1204 12.9123 23.1327 12.9199C23.145 12.9275 23.1591 12.9335 23.1744 12.9394C23.1898 12.9453 23.2052 12.9499 23.2206 12.9512C23.2347 12.9529 23.2501 12.9542 23.2655 12.9542C23.3024 12.9525 23.3363 12.9423 23.3671 12.9199C23.3935 12.9005 23.4163 12.8709 23.4304 12.8295L23.4335 12.8219C23.4414 12.7923 23.4519 12.7627 23.4643 12.7361C23.4783 12.7048 23.492 12.6753 23.5091 12.6486C23.5258 12.6191 23.5447 12.5924 23.5645 12.5671C23.5847 12.5405 23.6076 12.5151 23.6322 12.4915C23.6556 12.4691 23.6784 12.4484 23.703 12.4306C23.7277 12.4112 23.7541 12.3934 23.7818 12.3774C23.8081 12.3609 23.8359 12.3478 23.8649 12.3343C23.8926 12.3207 23.922 12.3089 23.9528 12.2988H23.9546L23.97 12.2958H23.9717L24.0549 12.2882L24.0764 12.2865C24.1841 12.2776 24.2937 12.273 24.4032 12.2747C24.5127 12.2764 24.6235 12.2836 24.7317 12.2954C24.8394 12.3072 24.9476 12.3267 25.0553 12.3486C25.1538 12.3693 25.2528 12.396 25.35 12.4272V12.426L25.3715 12.4331C25.4749 12.4657 25.5764 12.5041 25.6754 12.5455C25.7757 12.5899 25.8728 12.6372 25.967 12.6892C26.0624 12.7425 26.1534 12.8003 26.2431 12.8612C26.3311 12.9233 26.4173 12.9901 26.4991 13.0598C26.5809 13.1295 26.6578 13.2035 26.7335 13.2821C26.8074 13.3607 26.8768 13.4405 26.9415 13.525C27.0061 13.6079 27.0664 13.697 27.1235 13.7858C27.179 13.8762 27.23 13.9679 27.2748 14.063C27.3056 14.1268 27.3351 14.1906 27.361 14.2557C27.3874 14.3207 27.4103 14.3862 27.4318 14.4513C27.4534 14.5151 27.4718 14.5802 27.489 14.647C27.5061 14.712 27.5185 14.7788 27.5308 14.8439L27.5462 14.9326L27.5523 14.9668L27.5185 14.958L27.4261 14.9356C27.4151 14.9326 27.4046 14.9313 27.3953 14.928C27.3843 14.9267 27.3751 14.925 27.3645 14.9233C27.3535 14.9216 27.343 14.9204 27.332 14.9191C27.3228 14.9191 27.3135 14.9174 27.3025 14.9161H27.3008L27.2977 14.9149C27.2528 14.9106 27.2097 14.9089 27.1649 14.9089C27.12 14.9089 27.0738 14.9106 27.0294 14.9149C26.9833 14.9195 26.9384 14.9284 26.8953 14.9373C26.8504 14.9478 26.8074 14.9597 26.7643 14.9744L26.7581 14.9757C26.7181 14.9905 26.6794 15.007 26.6407 15.0247C26.6007 15.0442 26.5606 15.0661 26.5219 15.0885C26.485 15.1122 26.4481 15.1376 26.4142 15.1654C26.3786 15.1938 26.3447 15.2233 26.3126 15.2529C26.2818 15.2855 26.2524 15.318 26.2247 15.3535C26.1983 15.3877 26.1723 15.4232 26.149 15.4617C26.1257 15.4988 26.1042 15.5373 26.0875 15.577C26.0672 15.6172 26.0518 15.6569 26.0382 15.7L26.0364 15.7017V15.7046C26.0334 15.7389 26.0364 15.7697 26.0457 15.7963C26.0549 15.8246 26.0703 15.8483 26.0905 15.8673C26.1015 15.8792 26.1152 15.888 26.1292 15.8956C26.1446 15.9045 26.1587 15.9104 26.1754 15.9151C26.1926 15.9197 26.208 15.9223 26.2247 15.9223C26.2401 15.9223 26.2572 15.9206 26.2739 15.918C26.3016 15.9121 26.328 15.9003 26.3496 15.8825C26.3711 15.8661 26.3896 15.8441 26.405 15.8158L26.4067 15.8141L26.4098 15.8082C26.4173 15.7815 26.4283 15.7562 26.4393 15.7313C26.4516 15.7046 26.4657 15.6793 26.481 15.6544C26.4964 15.6277 26.5149 15.6041 26.5334 15.5817C26.5518 15.558 26.5721 15.5356 26.5936 15.5136C26.6152 15.4929 26.6367 15.4735 26.66 15.4545C26.6847 15.435 26.7093 15.419 26.7339 15.4025C26.7585 15.3877 26.7849 15.3729 26.8126 15.3594C26.8403 15.3476 26.8698 15.3357 26.8975 15.3252L26.9208 15.3176C27.0101 15.2909 27.1042 15.2821 27.1996 15.288C27.3122 15.2956 27.4279 15.3235 27.5374 15.3666C27.6561 15.4126 27.7687 15.4748 27.8689 15.5474C27.9692 15.6214 28.0572 15.7059 28.1218 15.7934C28.1495 15.8306 28.1741 15.869 28.1975 15.9104C28.2208 15.9518 28.2405 15.992 28.2577 16.0347C28.2749 16.0778 28.2902 16.1204 28.3026 16.1652C28.3136 16.2096 28.3228 16.254 28.3272 16.2988V16.3005C28.3333 16.3448 28.3364 16.3892 28.3347 16.4353C28.3347 16.4813 28.3303 16.5269 28.3237 16.5717C28.3175 16.6178 28.3083 16.6622 28.296 16.7065C28.2836 16.7509 28.2683 16.7953 28.2511 16.8371L28.2493 16.8401C28.237 16.8684 28.223 16.8963 28.2093 16.9246C28.1922 16.9529 28.1768 16.9795 28.1601 17.0061C28.1416 17.0328 28.1245 17.0581 28.1047 17.083C28.0862 17.1067 28.066 17.1304 28.0431 17.154L28.0106 17.1883L28 17.2014L27.9828 17.1942L27.9411 17.1705C27.8377 17.1185 27.7313 17.0712 27.6218 17.0311C27.5123 16.9909 27.3997 16.9584 27.2858 16.9318C27.1719 16.9064 27.0563 16.8874 26.9388 16.8756C26.8219 16.8637 26.7062 16.8608 26.5905 16.8637H26.5892C26.4212 16.8667 26.2546 16.8861 26.091 16.9199C25.9274 16.9542 25.7673 17.0028 25.6147 17.0653C25.4603 17.1274 25.3139 17.2031 25.1736 17.2918C25.0364 17.3805 24.9054 17.4815 24.7849 17.5956H24.7836L24.7818 17.5986C24.7541 17.6222 24.7387 17.6476 24.7308 17.6742C24.7215 17.7055 24.7233 17.7363 24.7325 17.7659C24.7374 17.7794 24.7435 17.7913 24.7497 17.8044C24.7576 17.8162 24.7651 17.828 24.7761 17.8399C24.7853 17.8504 24.7963 17.8606 24.8086 17.8694C24.8196 17.8783 24.8319 17.8859 24.8442 17.8931C24.875 17.9066 24.9106 17.9138 24.9476 17.9096C24.9801 17.9054 25.0153 17.8931 25.0492 17.8682H25.0509L25.054 17.8639H25.0558C25.1789 17.7469 25.3148 17.6446 25.4582 17.5601C25.6046 17.4743 25.759 17.4029 25.9208 17.3514C26.0813 17.2981 26.2506 17.2626 26.4204 17.2462C26.5901 17.2284 26.7625 17.2297 26.934 17.2491C26.9771 17.2538 27.0202 17.2597 27.0651 17.2686C27.1099 17.2762 27.153 17.2833 27.1948 17.2939C27.2366 17.3028 27.2797 17.3146 27.321 17.3264C27.3641 17.3383 27.4059 17.3518 27.4477 17.3649V17.3666C27.5123 17.389 27.5756 17.4139 27.6389 17.4422C27.7005 17.4705 27.7621 17.5014 27.8223 17.5356C27.8826 17.5698 27.9411 17.6066 27.9965 17.6451C28.0536 17.6852 28.1091 17.7266 28.1614 17.7697H28.1631L28.168 17.7744V17.7761C28.1913 17.7997 28.2142 17.8234 28.2357 17.8487C28.2573 17.8724 28.2775 17.8977 28.2973 17.9244C28.3175 17.948 28.3342 17.9734 28.3514 17.9983C28.3654 18.019 28.3778 18.0385 28.3883 18.0575L28.4006 18.0769C28.4301 18.1259 28.456 18.1775 28.4807 18.2295C28.504 18.2827 28.5238 18.3359 28.5409 18.3909C28.5594 18.4458 28.5735 18.502 28.5858 18.557C28.595 18.6072 28.6029 18.6575 28.6073 18.7082L28.6086 18.7289C28.6135 18.7792 28.6165 18.8325 28.6148 18.8844C28.613 18.9377 28.6086 18.9909 28.6025 19.0429C28.5963 19.0949 28.5871 19.1464 28.5748 19.1984C28.5638 19.2445 28.5515 19.2901 28.5348 19.3362H28.5365L28.5286 19.3556L28.5273 19.3615L28.515 19.397L28.5101 19.4118H28.507C28.4961 19.4401 28.4837 19.4697 28.4701 19.4963C28.456 19.5289 28.4393 19.5614 28.4222 19.5939C28.4006 19.6324 28.3773 19.6679 28.3527 19.7051C28.3342 19.7334 28.3127 19.763 28.2911 19.7896L28.2771 19.8073C28.2414 19.8534 28.2032 19.8961 28.1614 19.9379C28.1214 19.9793 28.0783 20.0178 28.0352 20.0549C27.9903 20.0921 27.9441 20.1259 27.8962 20.1585C27.8483 20.191 27.799 20.2206 27.748 20.2472L27.7463 20.2485L27.7229 20.2603H27.7216C27.6324 20.3064 27.5382 20.3448 27.4424 20.3744C27.3452 20.4057 27.2449 20.4264 27.1447 20.4395C27.0444 20.4526 26.9428 20.456 26.8395 20.45C26.7392 20.4458 26.6389 20.4306 26.5404 20.4069H26.5373C26.5127 20.3993 26.4881 20.3934 26.4635 20.3875C26.4388 20.3803 26.4142 20.374 26.3878 20.3651C26.346 20.3516 26.3091 20.3503 26.2752 20.3562C26.2396 20.3621 26.2106 20.3769 26.1873 20.3993C26.1763 20.4099 26.1671 20.42 26.1596 20.4306C26.1517 20.4424 26.1455 20.456 26.1393 20.4691C26.1345 20.4809 26.1301 20.4944 26.1284 20.5092C26.1266 20.5227 26.1253 20.5375 26.1266 20.5506C26.1297 20.5848 26.142 20.6174 26.1666 20.647C26.1868 20.6753 26.2189 20.6989 26.2607 20.7167L26.2638 20.7184H26.2651V20.7201C26.2884 20.7277 26.3082 20.7332 26.3284 20.7395C26.3487 20.7454 26.3702 20.7501 26.39 20.7572C26.4116 20.7619 26.4331 20.7661 26.4547 20.7708C26.4749 20.7767 26.4978 20.7796 26.5211 20.7856H26.5228L26.5584 20.7915L26.5708 20.7927L26.5985 20.7987L26.6262 20.8029H26.6279L26.6574 20.8058H26.6605L26.6974 20.8105H26.7005L26.7374 20.8147C26.7669 20.8164 26.7959 20.8194 26.8223 20.8194C26.85 20.8223 26.8777 20.8223 26.9023 20.8223H26.9824C27.0088 20.8223 27.0347 20.8206 27.0624 20.8194L27.0765 20.8177H27.0782L27.0875 20.8164H27.0919L27.1152 20.8147H27.1183L27.1293 20.8118C27.1987 20.8058 27.2682 20.7953 27.3373 20.7822C27.4068 20.7703 27.4758 20.7539 27.5422 20.7332C27.6099 20.7125 27.6763 20.6888 27.741 20.6622C27.8056 20.6355 27.8703 20.606 27.9323 20.5734H27.9354C27.9446 20.5675 27.9556 20.5616 27.9617 20.557C27.9697 20.554 27.9789 20.5481 27.9881 20.5434C27.996 20.5375 28.0066 20.5316 28.0158 20.5269C28.0233 20.5223 28.0312 20.5164 28.0422 20.5105L28.1223 20.4615L28.153 20.4437L28.1579 20.4779L28.1702 20.5684C28.1794 20.6305 28.1873 20.6943 28.1935 20.7581C28.1966 20.8202 28.1997 20.884 28.1997 20.9478C28.1997 21.0116 28.1966 21.075 28.1904 21.1376C28.1873 21.1908 28.1794 21.2457 28.1719 21.3007H28.1733L28.1689 21.3231C28.1535 21.4194 28.1332 21.5141 28.1055 21.6091C28.0778 21.7038 28.0453 21.7959 28.007 21.8876C27.9701 21.9763 27.9252 22.0655 27.8773 22.153C27.828 22.2375 27.774 22.322 27.7155 22.4002L27.7137 22.4019C27.6552 22.4817 27.5906 22.5591 27.5224 22.6313C27.4547 22.704 27.3804 22.7737 27.3052 22.8388C27.2282 22.9039 27.1495 22.963 27.0646 23.018C26.9828 23.0742 26.8966 23.1245 26.8074 23.1705C26.7458 23.2018 26.6825 23.2297 26.6191 23.258C26.5558 23.2846 26.4912 23.3083 26.4265 23.3307C26.3632 23.3514 26.2972 23.3708 26.2321 23.3869C26.1657 23.4033 26.1011 23.4164 26.0347 23.4283L25.9454 23.4431L25.9115 23.449L25.9177 23.4164L25.9379 23.3307C25.9516 23.2698 25.9626 23.2077 25.9718 23.1456C25.981 23.0835 25.9872 23.0209 25.9903 22.9588C25.9951 22.895 25.9964 22.8329 25.9951 22.7691C25.9933 22.707 25.9903 22.6448 25.9841 22.5823C25.9749 22.4771 25.9577 22.3748 25.9349 22.2713C25.9102 22.169 25.8808 22.0668 25.8438 21.9692C25.8069 21.8686 25.762 21.7722 25.7128 21.6789C25.6666 21.5901 25.6143 21.5039 25.5553 21.4194L25.5461 21.4059C25.4999 21.3408 25.4489 21.2753 25.3979 21.2149C25.3438 21.154 25.2902 21.0966 25.2312 21.0399C25.1723 20.9833 25.1125 20.9318 25.0509 20.8815C24.9876 20.8312 24.9216 20.7839 24.8552 20.7408L24.8522 20.7378L24.835 20.7213L24.8319 20.7167C24.8135 20.6884 24.795 20.6588 24.7778 20.6292C24.7624 20.5996 24.747 20.5701 24.733 20.5375C24.7207 20.5079 24.7083 20.4754 24.6974 20.4429C24.6864 20.4103 24.6789 20.3778 24.6727 20.3452L24.671 20.3393C24.6635 20.3051 24.6573 20.2726 24.6525 20.2371C24.6494 20.2016 24.6463 20.1644 24.6463 20.1259C24.6463 20.0875 24.6463 20.0503 24.6507 20.0118C24.6538 19.9734 24.66 19.9362 24.6661 19.8978L24.6675 19.8961C24.6754 19.8589 24.6859 19.8221 24.6969 19.7866C24.7092 19.7494 24.7233 19.7139 24.7387 19.6784C24.7541 19.6442 24.7726 19.6104 24.7928 19.5779C24.8099 19.5453 24.8315 19.5141 24.853 19.4832H24.8561C24.901 19.4194 24.9515 19.3615 25.0105 19.31C25.0659 19.258 25.1274 19.2123 25.1939 19.1735H25.1956L25.2004 19.1705C25.2079 19.1646 25.2158 19.157 25.222 19.1498C25.2299 19.1409 25.2361 19.1321 25.2422 19.1232C25.2515 19.1067 25.2594 19.0877 25.2625 19.0699C25.2669 19.0505 25.2686 19.0298 25.2669 19.0091C25.2655 18.9897 25.2607 18.9706 25.2515 18.9529C25.2453 18.9335 25.2343 18.9174 25.222 18.9026C25.2145 18.895 25.2066 18.8861 25.1974 18.8789C25.1881 18.8713 25.1802 18.8654 25.1697 18.8595L25.1666 18.8578C25.1543 18.8519 25.142 18.846 25.1279 18.8413C25.1125 18.8384 25.0984 18.8354 25.0848 18.8354C25.0694 18.8354 25.054 18.8371 25.0386 18.8413C25.0232 18.8443 25.0078 18.8489 24.9938 18.8561L24.9907 18.8578L24.9858 18.8595C24.9427 18.8861 24.8996 18.9144 24.8579 18.9453C24.8161 18.9766 24.7778 19.0091 24.7391 19.0429C24.7022 19.0771 24.6653 19.1126 24.6314 19.1523C24.5975 19.1895 24.565 19.2293 24.536 19.2694L24.5285 19.28C24.5008 19.3184 24.4762 19.3586 24.4528 19.3983C24.4265 19.4426 24.4036 19.4887 24.3834 19.5348C24.3618 19.5808 24.3447 19.6294 24.3293 19.6772C24.3139 19.7245 24.2998 19.7748 24.2893 19.8255C24.2818 19.8686 24.2739 19.91 24.269 19.9501C24.2646 19.9932 24.2615 20.0347 24.2598 20.0773C24.2585 20.1204 24.2585 20.1619 24.2615 20.205C24.2646 20.2481 24.269 20.2907 24.2739 20.3326L24.2875 20.426L24.2923 20.4602L24.2585 20.4496L24.1644 20.4213C24.0966 20.4006 24.0254 20.3841 23.9564 20.3681C23.8855 20.3533 23.813 20.3414 23.7422 20.3326C23.6696 20.322 23.5971 20.3161 23.5249 20.3131C23.4524 20.3102 23.3798 20.3089 23.3077 20.3102L23.3033 20.3119L23.2985 20.3136C23.2536 20.3178 23.2153 20.33 23.1859 20.349C23.1551 20.3685 23.1305 20.3951 23.1164 20.4247C23.112 20.4365 23.1072 20.45 23.1041 20.4631C23.101 20.4767 23.0997 20.4915 23.101 20.5046C23.101 20.5193 23.1041 20.5329 23.1072 20.546C23.112 20.5595 23.1164 20.5713 23.1243 20.5844C23.1397 20.611 23.1643 20.6364 23.1969 20.6541C23.2263 20.6689 23.2615 20.6795 23.3046 20.6825H23.3262C23.4154 20.6795 23.5065 20.6825 23.5962 20.6913C23.6885 20.6989 23.7813 20.7137 23.8724 20.7327C23.9647 20.7522 24.0527 20.7771 24.1406 20.8067C24.2206 20.835 24.2994 20.8658 24.375 20.903L24.3952 20.9119C24.4801 20.9533 24.5601 20.9994 24.6371 21.0484C24.7158 21.1004 24.7897 21.1549 24.8592 21.2145C24.9287 21.2736 24.9946 21.3362 25.0566 21.4042C25.1182 21.471 25.1754 21.542 25.2277 21.6159L25.24 21.6336C25.288 21.7034 25.3311 21.7744 25.3698 21.8483C25.4129 21.9282 25.4498 22.0114 25.4806 22.0942C25.5114 22.1788 25.5377 22.2645 25.5575 22.352C25.5778 22.4378 25.5914 22.5269 25.5993 22.6174C25.6072 22.7019 25.6103 22.7864 25.6072 22.8692C25.6055 22.9537 25.598 23.0383 25.5857 23.1211C25.5734 23.2039 25.5549 23.2871 25.5316 23.3687C25.5083 23.4503 25.4806 23.5301 25.4467 23.6087V23.6104L25.4423 23.621L25.441 23.6227C25.3654 23.7414 25.2805 23.8492 25.1864 23.9501C25.094 24.0495 24.992 24.1382 24.8825 24.2168C24.773 24.2954 24.656 24.3634 24.5324 24.4196C24.4155 24.4716 24.2919 24.516 24.1626 24.5485L24.1393 24.5561C24.039 24.5815 23.9374 24.5992 23.8354 24.611C23.729 24.6241 23.6243 24.6305 23.5179 24.6305C23.4115 24.6305 23.302 24.6246 23.1942 24.611C23.0865 24.5992 22.977 24.5798 22.8688 24.5561C22.7716 24.5324 22.6744 24.5041 22.5772 24.4716C22.4849 24.4391 22.3939 24.4019 22.3042 24.3592C22.2193 24.319 22.1362 24.2734 22.0574 24.2227C21.9818 24.1737 21.9092 24.1204 21.8433 24.0642H21.842C21.7848 24.0152 21.7311 23.959 21.6801 23.8999C21.6353 23.8449 21.5939 23.7875 21.5601 23.7266C21.5275 23.6675 21.5016 23.6066 21.4844 23.5428C21.4673 23.4836 21.458 23.4228 21.458 23.3607V20.3102C21.458 20.2303 21.458 20.1635 21.4611 20.1014C21.4642 20.0406 21.4704 19.9844 21.4813 19.9294C21.4923 19.8745 21.5077 19.82 21.5306 19.7591C21.5522 19.7059 21.5785 19.6467 21.6137 19.577L21.623 19.5563C21.6999 19.408 21.7909 19.269 21.8974 19.1401C22.0051 19.0112 22.1256 18.8958 22.2597 18.7936C22.3925 18.6913 22.5372 18.6055 22.6916 18.5341C22.8429 18.4631 23.0047 18.4099 23.1727 18.3727L23.174 18.371H23.1758L23.1819 18.3681C23.2052 18.3605 23.2237 18.3503 23.2404 18.3398C23.2576 18.3279 23.2712 18.3144 23.2835 18.2983C23.291 18.2865 23.2989 18.273 23.3051 18.2599C23.3099 18.2451 23.3143 18.2303 23.3143 18.2155C23.3174 18.2007 23.3161 18.1872 23.3143 18.1741C23.3143 18.1593 23.3112 18.1445 23.3064 18.1327C23.3015 18.1179 23.2954 18.1061 23.2892 18.0926C23.2813 18.0807 23.2738 18.0689 23.2646 18.0583C23.2444 18.0347 23.2167 18.0169 23.1859 18.008C23.1582 17.9992 23.1243 17.9975 23.0905 18.008H23.0861C22.9409 18.0406 22.8006 18.0837 22.6652 18.1386C22.528 18.1919 22.3969 18.2557 22.2703 18.3313L22.2668 18.3279Z" fill="url(#paint0_linear_74_26)"/>
<path fill-rule="evenodd" clip-rule="evenodd" d="M20.2543 14.6783C19.3014 14.6783 18.4363 15.0514 17.8106 15.6514C17.1861 16.2527 16.7991 17.0826 16.7991 17.9996C16.7991 18.9166 17.1861 19.7478 17.8106 20.3478C18.4368 20.9491 19.3014 21.3214 20.2543 21.3214C20.3238 21.3184 20.3898 21.351 20.4241 21.4072C20.461 21.4634 20.461 21.5348 20.4241 21.5923C20.3902 21.6485 20.3238 21.681 20.2543 21.678C19.198 21.678 18.2406 21.266 17.5485 20.5997C16.8563 19.9345 16.4275 19.0142 16.4275 17.9996C16.4275 16.985 16.8563 16.0647 17.5485 15.3996C18.2406 14.7345 19.1985 14.3225 20.2543 14.3225C20.3238 14.3195 20.3898 14.352 20.4241 14.4082C20.461 14.4644 20.461 14.5354 20.4241 14.5933C20.3902 14.6482 20.3238 14.6821 20.2543 14.6778V14.6783Z" fill="url(#paint1_linear_74_26)"/>
<path fill-rule="evenodd" clip-rule="evenodd" d="M20.2543 24.97H19.5635C19.4724 24.97 19.3906 24.9358 19.3321 24.8783C19.2737 24.8221 19.2367 24.7435 19.2367 24.6577V23.5789C19.0639 23.5506 18.8959 23.5138 18.7279 23.4724C18.5612 23.4293 18.3963 23.379 18.2327 23.3212L17.6716 24.2546C17.6267 24.3286 17.5546 24.3805 17.4741 24.4C17.3941 24.4207 17.3044 24.4135 17.2261 24.3687L16.0282 23.7036C15.9512 23.6605 15.8984 23.5912 15.8769 23.5138C15.8554 23.4369 15.8646 23.3524 15.9094 23.2768L16.4706 22.3433C16.3365 22.2352 16.2085 22.1228 16.0867 22.004C15.9649 21.887 15.8479 21.7657 15.7353 21.6351L14.7625 22.1743C14.6856 22.2187 14.5976 22.2263 14.5171 22.2069C14.4371 22.1861 14.3628 22.1359 14.3197 22.0615L13.6257 20.9087V20.907C13.5809 20.8331 13.5734 20.7486 13.595 20.67C13.6152 20.5943 13.6675 20.5234 13.7445 20.4819H13.7462L14.7177 19.9428C14.6574 19.7856 14.6051 19.6271 14.5602 19.4657C14.5154 19.3055 14.4784 19.1428 14.4494 18.9785H13.3267C13.2374 18.9785 13.1556 18.943 13.0954 18.8868L13.0967 18.8855C13.0365 18.8293 12.9995 18.7507 12.9995 18.6649V17.3359C12.9995 17.2485 13.0365 17.1699 13.0949 17.1137H13.0963C13.1547 17.0575 13.2365 17.022 13.3258 17.022H14.4481C14.4776 16.8559 14.5145 16.6932 14.5589 16.5331C14.6038 16.3729 14.6561 16.2145 14.7164 16.0577L13.7449 15.5185H13.7432C13.6662 15.4754 13.6139 15.4061 13.5936 15.3288C13.5703 15.2519 13.5796 15.1657 13.6244 15.09L14.3184 13.9389C14.3632 13.865 14.4353 13.813 14.5158 13.7936C14.5959 13.7729 14.6838 13.7818 14.7612 13.8249H14.763L15.7344 14.364C15.847 14.2352 15.964 14.1122 16.0858 13.9951C16.2076 13.8781 16.3356 13.7657 16.4697 13.6575L15.9086 12.7228C15.8637 12.6489 15.8545 12.5627 15.876 12.4874C15.8976 12.4088 15.9499 12.3391 16.0273 12.2977L17.227 11.6309C17.3039 11.5878 17.3937 11.5789 17.4737 11.6013C17.5537 11.6208 17.6263 11.671 17.6711 11.745V11.7467L18.2323 12.6801C18.3959 12.6222 18.5608 12.572 18.7275 12.5288C18.8955 12.4857 19.0634 12.4503 19.2363 12.4207V11.3423C19.2363 11.2548 19.2732 11.1779 19.3317 11.12C19.3919 11.0638 19.4737 11.0283 19.563 11.0283H20.7535C20.855 11.0283 20.9386 11.1099 20.9386 11.2075C20.9386 11.3051 20.8555 11.3854 20.7535 11.3854H19.6061V12.7249L19.4487 12.7473C19.2358 12.7769 19.0278 12.82 18.8229 12.8715C18.6131 12.9248 18.4126 12.9886 18.2187 13.0625L18.0705 13.1187L17.9904 12.9852L17.3739 11.9584L16.2516 12.5821L16.8699 13.6102L16.9499 13.7437L16.825 13.8384C16.6584 13.9643 16.4996 14.0991 16.3483 14.2457C16.1957 14.3911 16.0554 14.5436 15.9244 14.7034L15.8259 14.8234L15.6856 14.7465L14.617 14.1523L13.9692 15.2312L15.0361 15.8236L15.175 15.8992L15.1179 16.0429C15.0391 16.2297 14.9727 16.4224 14.9173 16.6235C14.8632 16.8204 14.8201 17.0207 14.788 17.2252L14.7647 17.3765H13.3716V18.621H14.7656L14.7889 18.7735C14.8215 18.978 14.8646 19.1779 14.9182 19.3736C14.9736 19.5764 15.04 19.7691 15.1187 19.9542L15.1759 20.0978L15.0369 20.1735L13.9701 20.7676L14.6179 21.846L15.6878 21.2519L15.8268 21.175L15.9253 21.295C16.0563 21.4534 16.1984 21.606 16.3492 21.753C16.5018 21.8984 16.6592 22.0344 16.8259 22.1604L16.9508 22.255L16.8708 22.3886L16.2525 23.4154L17.3747 24.0391L17.9913 23.0123L18.0713 22.8792L18.2195 22.9354C18.4139 23.0093 18.6144 23.0731 18.8238 23.128C19.0287 23.18 19.2372 23.2214 19.4496 23.251L19.607 23.2734V24.6142H20.7543C20.8559 24.6142 20.9395 24.6941 20.9395 24.7921C20.9395 24.8897 20.8564 24.97 20.7543 24.97H20.2548H20.2543Z" fill="url(#paint2_linear_74_26)"/>
<path fill-rule="evenodd" clip-rule="evenodd" d="M19.7166 20.5732C19.1863 20.465 18.7131 20.2131 18.3459 19.8578C17.8494 19.3836 17.5442 18.7257 17.5442 17.9997C17.5442 17.2738 17.8494 16.6175 18.3459 16.1417C18.739 15.764 19.2527 15.4986 19.8261 15.4069C19.8833 15.4022 19.9387 15.4234 19.9787 15.4631C20.0249 15.5091 20.0403 15.5772 20.0205 15.638C20.0003 15.7001 19.9479 15.7475 19.8833 15.761C19.3881 15.8409 18.9475 16.0678 18.608 16.3936C18.1792 16.8056 17.914 17.3727 17.914 17.9997C17.914 18.6268 18.1792 19.1952 18.608 19.6059C18.9317 19.9186 19.3494 20.1392 19.8182 20.2296C19.9092 20.2638 19.9585 20.3585 19.929 20.4489C19.9013 20.5364 19.809 20.5896 19.7162 20.5732H19.7166Z" fill="url(#paint3_linear_74_26)"/>
</g>
<defs>
<filter id="filter0_dd_74_26" x="0" y="0" width="43" height="43" filterUnits="userSpaceOnUse" color-interpolation-filters="sRGB">
<feFlood flood-opacity="0" result="BackgroundImageFix"/>
<feColorMatrix in="SourceAlpha" type="matrix" values="0 0 0 0 0 0 0 0 0 0 0 0 0 0 0 0 0 0 127 0" result="hardAlpha"/>
<feOffset dy="3"/>
<feGaussianBlur stdDeviation="0.5"/>
<feColorMatrix type="matrix" values="0 0 0 0 0 0 0 0 0 0 0 0 0 0 0 0 0 0 0.06 0"/>
<feBlend mode="normal" in2="BackgroundImageFix" result="effect1_dropShadow_74_26"/>
<feColorMatrix in="SourceAlpha" type="matrix" values="0 0 0 0 0 0 0 0 0 0 0 0 0 0 0 0 0 0 127 0" result="hardAlpha"/>
<feOffset dy="3"/>
<feGaussianBlur stdDeviation="4"/>
<feColorMatrix type="matrix" values="0 0 0 0 0 0 0 0 0 0 0 0 0 0 0 0 0 0 0.15 0"/>
<feBlend mode="normal" in2="effect1_dropShadow_74_26" result="effect2_dropShadow_74_26"/>
<feBlend mode="normal" in="SourceGraphic" in2="effect2_dropShadow_74_26" result="shape"/>
</filter>
<linearGradient id="paint0_linear_74_26" x1="20.7429" y1="16.9354" x2="29.3925" y2="16.9607" gradientUnits="userSpaceOnUse">
<stop stop-color="#56C0E5"/>
<stop offset="0.494791" stop-color="#B977E6"/>
<stop offset="1" stop-color="#E55C5E"/>
</linearGradient>
<linearGradient id="paint1_linear_74_26" x1="16.2621" y1="17.4412" x2="20.6505" y2="17.4536" gradientUnits="userSpaceOnUse">
<stop stop-color="#56C0E5"/>
<stop offset="0.494791" stop-color="#B977E6"/>
<stop offset="1" stop-color="#E55C5E"/>
</linearGradient>
<linearGradient id="paint2_linear_74_26" x1="12.6732" y1="16.9396" x2="21.3315" y2="16.9651" gradientUnits="userSpaceOnUse">
<stop stop-color="#56C0E5"/>
<stop offset="0.494791" stop-color="#B977E6"/>
<stop offset="1" stop-color="#E55C5E"/>
</linearGradient>
<linearGradient id="paint3_linear_74_26" x1="17.4421" y1="17.5983" x2="20.1516" y2="17.605" gradientUnits="userSpaceOnUse">
<stop stop-color="#56C0E5"/>
<stop offset="0.494791" stop-color="#B977E6"/>
<stop offset="1" stop-color="#E55C5E"/>
</linearGradient>
<clipPath id="clip0_74_26">
<rect width="16" height="14" fill="white" transform="translate(13 11)"/>
</clipPath>
</defs>
</svg>
