<svg width="1521" height="261" viewBox="0 0 1521 261" fill="none" xmlns="http://www.w3.org/2000/svg">
<path d="M1440 250L82 250" stroke="#737373" stroke-width="0.25"/>
<path d="M1352 240L169 240" stroke="#737373" stroke-width="0.25"/>
<path d="M1263 230L257 230" stroke="#737373" stroke-width="0.25"/>
<path d="M1183 221L337 221" stroke="#737373" stroke-width="0.25"/>
<path d="M1095 211L425 211" stroke="#737373" stroke-width="0.25"/>
<path d="M1303 259L996 202" stroke="#737373" stroke-width="0.25"/>
<path d="M1086 259L900 202" stroke="#737373" stroke-width="0.25"/>
<path d="M869 259L807 202" stroke="#737373" stroke-width="0.25"/>
<path d="M713 202L652 259" stroke="#737373" stroke-width="0.25"/>
<path d="M620 202L435 260" stroke="#737373" stroke-width="0.25"/>
<path d="M1 259L505 202" stroke="#737373" stroke-width="0.5"/>
<path d="M1520 259L1016 202" stroke="#737373" stroke-width="0.5"/>
<path d="M1440 11L82 11" stroke="#737373" stroke-width="0.25"/>
<path d="M1352 21L169 21" stroke="#737373" stroke-width="0.25"/>
<path d="M1263 31L257 30.9999" stroke="#737373" stroke-width="0.25"/>
<path d="M1183 40L337 40.0001" stroke="#737373" stroke-width="0.25"/>
<path d="M1095 50L425 50.0001" stroke="#737373" stroke-width="0.25"/>
<path d="M1303 2L996 59" stroke="#737373" stroke-width="0.25"/>
<path d="M1086 2L900 59" stroke="#737373" stroke-width="0.25"/>
<path d="M869 2L807 59" stroke="#737373" stroke-width="0.25"/>
<path d="M713 59L652 2" stroke="#737373" stroke-width="0.25"/>
<path d="M620 59L435 1" stroke="#737373" stroke-width="0.25"/>
<path d="M1 2L505 59" stroke="#737373" stroke-width="0.5"/>
<path d="M1520 2L1016 59" stroke="#737373" stroke-width="0.5"/>
</svg>
